<svg xmlns="http://www.w3.org/2000/svg" viewBox="0 0 186.28 248.38"><defs><style>.cls-1{fill:#fffac2;}.cls-2{fill:#fc6719;}.cls-3{fill:#fdb98d;}</style></defs><title>Element 12</title><g id="Ebene_2" data-name="Ebene 2"><g id="Ebene_1-2" data-name="Ebene 1"><path class="cls-1" d="M131.07,144.31c45.51-14,9.7-90.11,55.2-104.07L155.83,24.1c-45.51,14-9.7,90.11-55.2,104.07s-9.7,90.11-55.2,104.07l30.44,16.15C121.38,234.42,85.57,158.28,131.07,144.31Z"/><path class="cls-1" d="M85.65,120.22c45.51-14,9.7-90.11,55.2-104.07L110.41,0c-45.51,14-9.7,90.11-55.2,104.07S45.51,194.18,0,208.14l30.44,16.15C75.95,210.33,40.14,134.18,85.65,120.22Z"/><path class="cls-2" d="M92.67,123.94c45.51-14,9.7-90.11,55.2-104.07L117.43,3.72c-45.51,14-9.7,90.11-55.2,104.07S52.53,197.9,7,211.86L37.46,228C83,214,47.16,137.9,92.67,123.94Z"/><path class="cls-3" d="M115,135.77c45.51-14,9.7-90.11,55.2-104.07L139.73,15.55c-45.51,14-9.7,90.11-55.2,104.07s-9.7,90.11-55.2,104.07l30.44,16.15C105.27,225.88,69.46,149.73,115,135.77Z"/></g></g></svg>