<svg xmlns="http://www.w3.org/2000/svg" viewBox="0 0 350 350"><defs><style>.cls-1{fill:#00bcb4;}.cls-2{fill:#fffac2;}.cls-3{fill:#fc6719;}.cls-4{fill:#fdb98d;}</style></defs><title>Element 10</title><g id="Ebene_2" data-name="Ebene 2"><g id="Ebene_1-2" data-name="Ebene 1"><circle class="cls-1" cx="175" cy="175" r="175"/><path class="cls-2" d="M208.15,196.52c45.51-14,9.7-90.11,55.2-104.07L232.91,76.3c-45.51,14-9.7,90.11-55.2,104.07s-9.7,90.11-55.2,104.07l30.44,16.15C198.45,286.62,162.64,210.48,208.15,196.52Z"/><path class="cls-2" d="M162.72,172.42c45.51-14,9.7-90.11,55.2-104.07L187.48,52.2c-45.51,14-9.7,90.11-55.2,104.07s-9.7,90.11-55.2,104.07l30.44,16.15C153,262.53,117.22,186.38,162.72,172.42Z"/><path class="cls-3" d="M169.74,176.14c45.51-14,9.7-90.11,55.2-104.07L194.5,55.92C149,69.89,184.81,146,139.3,160s-9.7,90.11-55.2,104.07l30.44,16.15C160,266.25,124.24,190.1,169.74,176.14Z"/><path class="cls-4" d="M192,188c45.51-14,9.7-90.11,55.2-104.07L216.81,67.75c-45.51,14-9.7,90.11-55.2,104.07s-9.7,90.11-55.2,104.07L136.84,292C182.35,278.08,146.54,201.93,192,188Z"/></g></g></svg>