<svg xmlns="http://www.w3.org/2000/svg" viewBox="0 0 350 350"><defs><style>.cls-1{fill:#016099;}.cls-2{fill:#3d113c;}.cls-3{fill:#00bcb4;}.cls-4{fill:#fc6719;}.cls-5{fill:none;}.cls-6{fill:#fdb98d;}</style></defs><title>Element 6Illustrations</title><g id="Ebene_2" data-name="Ebene 2"><g id="Ebene_1-2" data-name="Ebene 1"><polygon class="cls-1" points="52.06 231.09 79.37 203.78 106.07 230.48 121.66 214.9 148.97 242.21 148.97 268.24 175 242.21 175 84.79 147.69 112.1 147.69 157.17 141.46 157.17 141.46 142.01 126.3 142.01 126.3 157.17 120.07 157.17 120.07 142.01 104.91 142.01 104.91 157.17 98.68 157.17 98.68 112.1 71.37 84.79 44.06 112.1 44.06 242.42 52.06 250.42 52.06 231.09"/><polygon class="cls-2" points="201.03 268.24 201.03 242.21 228.34 214.9 243.93 230.48 270.63 203.78 297.94 231.09 297.94 250.42 305.94 242.42 305.94 112.1 278.63 84.79 251.32 112.1 251.32 157.17 245.09 157.17 245.09 142.01 229.93 142.01 229.93 157.17 223.7 157.17 223.7 142.01 208.54 142.01 208.54 157.17 202.31 157.17 202.31 112.1 175 84.79 175 242.21 201.03 268.24"/><path class="cls-3" d="M335.24,245.4c-.33.75-.67,1.5-1,2.24C334.57,246.9,334.91,246.16,335.24,245.4Z"/><path class="cls-3" d="M336.8,241.77l-.06.13A175.07,175.07,0,0,0,175,0V84.79l27.31,27.31v45.07h6.23V142H223.7v15.16h6.23V142h15.16v15.16h6.23V112.1l27.31-27.31,27.31,27.31V238.6l13.85-13.85Z"/><path class="cls-3" d="M333.5,249.22c-.41.86-.82,1.73-1.24,2.59Q332.89,250.52,333.5,249.22Z"/><path class="cls-3" d="M330.54,255.24h0c.49-.95,1-1.91,1.43-2.87C331.51,253.34,331,254.29,330.54,255.24Z"/><path class="cls-4" d="M336.74,241.9q-.73,1.76-1.5,3.5Q336,243.66,336.74,241.9Z"/><path class="cls-4" d="M334.23,247.65l-.73,1.58Z"/><path class="cls-4" d="M332.26,251.81l-.29.57Z"/><path class="cls-4" d="M319.79,224.75,305.94,238.6l-8,8V231.09l-27.31-27.31-26.7,26.7-15.58-15.58L201,242.21v26l-26-26V350a174.73,174.73,0,0,0,141.69-72.33h0c.23-.32.45-.65.68-1q.85-1.18,1.67-2.38c.5-.72,1-1.45,1.48-2.18s1.07-1.6,1.59-2.4,1-1.52,1.44-2.29,1-1.59,1.49-2.4,1-1.68,1.48-2.53q1.15-2,2.24-4c.52-1,1-1.9,1.54-2.87l.23-.43h0c.49-.95,1-1.9,1.44-2.86l.29-.57c.42-.86.83-1.72,1.24-2.59l.73-1.58c.34-.75.68-1.49,1-2.24q.77-1.74,1.5-3.5l.06-.13Z"/><polygon class="cls-5" points="19.46 255.24 19.45 255.25 19.46 255.24 19.46 255.24"/><path class="cls-3" d="M15.79,247.68c-.35-.76-.7-1.52-1-2.29C15.09,246.16,15.44,246.92,15.79,247.68Z"/><path class="cls-3" d="M17.74,251.83c-.43-.87-.84-1.75-1.26-2.63Q17.11,250.52,17.74,251.83Z"/><path class="cls-3" d="M18,252.31c.48,1,1,2,1.46,2.93h0Q18.71,253.78,18,252.31Z"/><path class="cls-3" d="M147.69,157.17V112.1L175,84.79V0A175.07,175.07,0,0,0,13.33,242.08l-.13-.32,17-17L44.06,238.6V112.1L71.37,84.79,98.68,112.1v45.07h6.23V142h15.16v15.16h6.23V142h15.16v15.16Z"/><path class="cls-6" d="M18,252.31l-.24-.49Z"/><path class="cls-6" d="M16.49,249.2l-.7-1.52Z"/><path class="cls-6" d="M149,268.24v-26l-27.31-27.31-15.58,15.58-26.7-26.7L52.06,231.09V246.6l-8-8L30.21,224.75l-17,17,.13.32q.69,1.66,1.42,3.31c.34.77.69,1.53,1,2.29l.7,1.52c.41.88.83,1.76,1.26,2.63l.24.49q.73,1.47,1.47,2.92h0l.24.44c.48.92,1,1.82,1.47,2.73q1.15,2.11,2.35,4.19c.48.82.94,1.65,1.43,2.46s1,1.62,1.5,2.43.94,1.51,1.42,2.26,1.06,1.62,1.6,2.42,1,1.44,1.46,2.16,1.12,1.61,1.69,2.4l.67,1h0A174.73,174.73,0,0,0,175,350V242.21Z"/></g></g></svg>