<svg xmlns="http://www.w3.org/2000/svg" viewBox="0 0 350 350"><defs><style>.cls-1{fill:#00bcb4;}.cls-2{fill:#3d113c;}.cls-3{fill:#fffac2;}.cls-4{fill:#fdb98d;}.cls-5{fill:#424242;}.cls-6{fill:#b3b3b3;}.cls-7{fill:#fff;}.cls-8{fill:#016099;}</style></defs><title>Element 3Illustrations</title><g id="Ebene_2" data-name="Ebene 2"><g id="Ebene_1-2" data-name="Ebene 1"><path class="cls-1" d="M116.91,261V149.89H105a30.59,30.59,0,0,1-5.92-.58,144.7,144.7,0,0,0-61.5,78.85,51.21,51.21,0,0,1,38.55,91.22,174,174,0,0,0,81.65,29.78,51.17,51.17,0,0,1,16.95-28.63V292.6H148.52A31.61,31.61,0,0,1,116.91,261Z"/><path class="cls-2" d="M318.66,259.16a51.22,51.22,0,0,1-43.35-90.82,144.8,144.8,0,0,0-24.34-19,30.58,30.58,0,0,1-5.92.58h-12V261a31.61,31.61,0,0,1-31.61,31.61H174.69v27.92a51.19,51.19,0,0,1,76.74,11.94,175.75,175.75,0,0,0,67.8-58.34v-2.21C319.22,267.62,319,263.36,318.66,259.16Z"/><path class="cls-1" d="M285.4,179.12a145.05,145.05,0,0,0-10.09-10.78,51.23,51.23,0,0,0,43.35,90.82q-.44-5-1.22-10A143.62,143.62,0,0,0,285.4,179.12Z"/><path class="cls-3" d="M157.74,349.15q8.36.82,16.95.84V320.52A51.17,51.17,0,0,0,157.74,349.15Z"/><path class="cls-1" d="M175,350a174.28,174.28,0,0,0,76.43-17.53,51.19,51.19,0,0,0-76.74-11.94V350Z"/><path class="cls-4" d="M175,0A174.9,174.9,0,0,0,30.78,274.13v-2.21a144.31,144.31,0,0,1,5.51-39.62c.4-1.39.82-2.76,1.25-4.13A144.7,144.7,0,0,1,99,149.31a30.59,30.59,0,0,0,5.92.58h12V261a31.61,31.61,0,0,0,31.61,31.61h53A31.61,31.61,0,0,0,233.09,261V149.89h12a30.58,30.58,0,0,0,5.92-.58,144.42,144.42,0,0,1,66.47,99.89q.78,4.93,1.22,10c.37,4.2.57,8.46.57,12.76v2.21a174.09,174.09,0,0,0,30.56-90.43q.21-4.32.22-8.7A175,175,0,0,0,175,0Z"/><path class="cls-3" d="M96,278.86a51.19,51.19,0,0,0-58.45-50.7c-.44,1.37-.86,2.74-1.25,4.13a144.31,144.31,0,0,0-5.51,39.62v2.21a176,176,0,0,0,45.32,45.25A51.12,51.12,0,0,0,96,278.86Z"/><path class="cls-2" d="M116.91,97H117V44.58A17.23,17.23,0,0,0,99.8,61.81v57.62h17.11Z"/><rect class="cls-5" x="116.91" y="97.03" width="0.12" height="22.4"/><rect class="cls-6" x="116.91" y="119.43" width="0.12" height="0.26"/><path class="cls-7" d="M150.1,163.9h0Z"/><path class="cls-7" d="M150.1,154.15h0Z"/><path class="cls-7" d="M142.75,159a4.87,4.87,0,0,1,4.87-4.87H137.05v1.76a8,8,0,0,0,8,8h2.59A4.87,4.87,0,0,1,142.75,159Z"/><path class="cls-7" d="M150.1,154.16h-2.48a4.87,4.87,0,0,1,0,9.75h2.48a4.87,4.87,0,0,0,0-9.73Z"/><path d="M150.1,154.85a5.08,5.08,0,0,0-2.48-.7,4.87,4.87,0,1,0,1.2,9.58,4.84,4.84,0,0,0,1.28-8.88Z"/><path class="cls-1" d="M153.68,235.16a21.93,21.93,0,0,0-21.93,21.93h0A21.93,21.93,0,0,0,153.68,279h21V235.16Z"/><path class="cls-2" d="M233.09,119.43H250.2V62A17.23,17.23,0,0,0,233,44.79h0V97h.12Z"/><rect class="cls-6" x="232.97" y="97.03" width="0.12" height="22.4"/><path class="cls-3" d="M117,97v22.66h-.12v-.26H74.5A30.45,30.45,0,0,0,105,149.89h12V261a31.61,31.61,0,0,0,31.61,31.61h26.16V279h-21a21.93,21.93,0,0,1-21.93-21.93h0a21.93,21.93,0,0,1,21.93-21.93h21V97Zm33.08,66.86H145a8,8,0,0,1-8-8v-1.76H150.1a4.87,4.87,0,0,1,0,9.73Z"/><path class="cls-8" d="M250.2,119.43H233.09v.47H233V97H174.69V235.16h21.63a21.93,21.93,0,0,1,21.93,21.93h0A21.93,21.93,0,0,1,196.32,279H174.69V292.6h26.79A31.61,31.61,0,0,0,233.09,261V149.89h12a30.45,30.45,0,0,0,30.45-30.45H250.2ZM213,155.91a8,8,0,0,1-8,8H200a4.87,4.87,0,0,1,0-9.73H213Z"/><rect class="cls-6" x="232.97" y="119.43" width="0.12" height="0.47"/><path class="cls-6" d="M200,163.9h0Z"/><path class="cls-6" d="M200,154.15h0Z"/><path class="cls-7" d="M202.44,154.15a4.87,4.87,0,1,1,0,9.75H205a8,8,0,0,0,8-8v-1.76Z"/><path class="cls-7" d="M200,163.2a4.88,4.88,0,0,1,2.48-9H200a4.87,4.87,0,0,0,0,9.73h2.48a5.08,5.08,0,0,1-2.48-.7Z"/><path d="M202.44,154.15a4.87,4.87,0,1,0,4.87,4.87A4.83,4.83,0,0,0,202.44,154.15Z"/><path class="cls-2" d="M196.32,235.16H174.69V279h21.63a21.93,21.93,0,0,0,21.93-21.93h0A21.93,21.93,0,0,0,196.32,235.16Z"/><path class="cls-8" d="M153.12,257h9.28a0,0,0,0,1,0,0V264a0,0,0,0,1,0,0h-3.6a5.68,5.68,0,0,1-5.68-5.68V257A0,0,0,0,1,153.12,257Z"/><circle class="cls-8" cx="162.35" cy="260.51" r="3.46"/><path class="cls-8" d="M191.77,257h3.6a0,0,0,0,1,0,0V264a0,0,0,0,1,0,0h-9.28a0,0,0,0,1,0,0v-1.25A5.68,5.68,0,0,1,191.77,257Z" transform="translate(381.46 521.02) rotate(-180)"/><circle class="cls-8" cx="186.15" cy="260.51" r="3.46"/></g></g></svg>