<svg xmlns="http://www.w3.org/2000/svg" viewBox="0 0 229.3 287.33"><defs><style>.cls-1{fill:#3d113c;}.cls-2{fill:#fdb98d;}.cls-3{fill:#fffac2;}.cls-4{fill:#fc6719;}.cls-5{fill:#016099;}.cls-6{fill:#270e11;}.cls-7{fill:#00bcb4;}</style></defs><title>Element 11</title><g id="Ebene_2" data-name="Ebene 2"><g id="Ebene_1-2" data-name="Ebene 1"><path class="cls-1" d="M110,268.84a4.64,4.64,0,0,1,4.64-4.64v-7.94a4.64,4.64,0,0,1,0-9.28V239a4.64,4.64,0,0,1,0-9.28V217.08a13.56,13.56,0,0,1-11.41-6.23,13.56,13.56,0,0,1-22.32-1.41,13.57,13.57,0,0,1-23.09-3.73,13.53,13.53,0,0,1-15.59,2.36A95.38,95.38,0,0,0,0,287.33H114.65V273.48A4.64,4.64,0,0,1,110,268.84Z"/><path class="cls-2" d="M105.81,199.49H68.16a23.37,23.37,0,0,1-6.45-.91l-.83-.25a23.4,23.4,0,0,1-15.16-15.69,13.58,13.58,0,1,0,12.11,23.07,13.57,13.57,0,0,0,23.09,3.73,13.56,13.56,0,0,0,22.32,1.41,13.56,13.56,0,0,0,11.41,6.23V199.49Z"/><path class="cls-3" d="M94.44,99.81a34.55,34.55,0,0,1-5.35,7,34.41,34.41,0,0,1,16.58,26.55h9V111.59A34.38,34.38,0,0,1,94.44,99.81Z"/><path class="cls-3" d="M60.88,198.33l.83.25c0-.2.06-.4.09-.6Z"/><path class="cls-3" d="M114.64,186c0-.08,0-.15,0-.23V167h-2.28a6.28,6.28,0,0,1-6.28-6.28v-20h-.57a34.41,34.41,0,0,1-60.73,17.44v18a23.4,23.4,0,0,0,16.09,22.21l.92-.35c0,.2-.05.41-.09.6a23.37,23.37,0,0,0,6.45.91h46.49V190h-4a4.31,4.31,0,0,1-4.31-4.31V182c0-.09,0-.17,0-.26h4A4.31,4.31,0,0,1,114.64,186Z"/><path class="cls-3" d="M44.79,110.62a34.6,34.6,0,0,1-6.36-5.83A16.44,16.44,0,0,0,37,134.27a34.26,34.26,0,0,1,7.75-19.8Z"/><path class="cls-3" d="M44.79,110.62v3.85q1-1.26,2.18-2.42C46.22,111.6,45.5,111.12,44.79,110.62Z"/><path class="cls-2" d="M102.52,0a34.43,34.43,0,0,0-33,24.79A34.42,34.42,0,0,0,30.34,80.26c0,.75-.08,1.51-.08,2.28a34.44,34.44,0,0,0,14.53,28.08c.71.5,1.44,1,2.18,1.44h0a34.42,34.42,0,0,1,42.12-5.26,34.55,34.55,0,0,0,5.35-7,34.38,34.38,0,0,0,20.21,11.78V2.2A34.33,34.33,0,0,0,102.52,0Z"/><path class="cls-2" d="M106.09,140.71v20a6.28,6.28,0,0,0,6.28,6.28h2.28V140.71Z"/><path class="cls-4" d="M114.64,186a4.31,4.31,0,0,0-4.31-4.31h-4c0,.09,0,.17,0,.26v3.73a4.31,4.31,0,0,0,4.31,4.31h4v-4.23C114.65,185.89,114.64,186,114.64,186Z"/><path class="cls-2" d="M110,234.41a4.64,4.64,0,0,0,4.64,4.64v-9.28A4.64,4.64,0,0,0,110,234.41Z"/><path class="cls-2" d="M110,251.63a4.64,4.64,0,0,0,4.64,4.64V247A4.64,4.64,0,0,0,110,251.63Z"/><path class="cls-2" d="M110,268.84a4.64,4.64,0,0,0,4.64,4.64v-9.28A4.64,4.64,0,0,0,110,268.84Z"/><polygon class="cls-1" points="46.97 112.05 46.97 112.05 46.97 112.05 46.97 112.05"/><path class="cls-1" d="M105.67,133.34A34.41,34.41,0,0,0,47,112.05h0q-1.15,1.16-2.18,2.42A34.26,34.26,0,0,0,37,134.27c0,.68-.07,1.36-.07,2a34.41,34.41,0,0,0,68.55,4.4h9.13v-7.36Zm-6.84,7.36a27.8,27.8,0,0,1-53.21,6q-.47-1.16-.83-2.37a27.71,27.71,0,0,1-1.2-8.06s0,0,0-.06a27.8,27.8,0,0,1,38.22-25.7c.59.24,1.16.5,1.73.78a27.79,27.79,0,0,1,15.29,29.39Z"/><path class="cls-5" d="M71.39,108.51a27.78,27.78,0,0,0-27.79,27.73s0,0,0,.06a27.71,27.71,0,0,0,1.2,8.06q.37,1.21.83,2.37l32.51-32.51,3.68-3.68A27.7,27.7,0,0,0,71.39,108.51Z"/><path class="cls-5" d="M99,133.34a27.69,27.69,0,0,0-1.87-7.46L61,162.08a27.8,27.8,0,0,0,37.87-21.37,27.56,27.56,0,0,0,.19-7.36Z"/><path class="cls-3" d="M83.54,111.32a34.32,34.32,0,0,1-5.41,2.9L45.62,146.74A27.88,27.88,0,0,0,61,162.08l36.19-36.19A27.88,27.88,0,0,0,83.54,111.32Z"/><path class="cls-3" d="M78.13,114.23a34.32,34.32,0,0,0,5.41-2.9c-.57-.28-1.14-.54-1.73-.78Z"/><path class="cls-6" d="M229.3,287.33a95.39,95.39,0,0,0-43.48-80.08A13.5,13.5,0,0,1,172,204.8,13.57,13.57,0,0,1,148.27,210,13.55,13.55,0,0,1,125.95,211a13.57,13.57,0,0,1-11.3,6v12.69a4.64,4.64,0,1,1,0,9.28V247a4.64,4.64,0,1,1,0,9.28v7.94a4.64,4.64,0,1,1,0,9.28v13.85H229.3Z"/><path class="cls-4" d="M183.92,181.35a23.39,23.39,0,0,1-15.5,17l-.51.16a23.36,23.36,0,0,1-6.77,1H114.65v17.59a13.57,13.57,0,0,0,11.3-6A13.55,13.55,0,0,0,148.27,210,13.57,13.57,0,0,0,172,204.8a13.58,13.58,0,1,0,11.94-23.45Z"/><path class="cls-7" d="M157.48,101.9a34.6,34.6,0,0,1-6.59-7.37,34.38,34.38,0,0,1-36.24,17.07v21.75h9A34.41,34.41,0,0,1,157.48,101.9Z"/><path class="cls-7" d="M157.91,170.73a34.42,34.42,0,0,1-34.13-30h-.57v20a6.28,6.28,0,0,1-6.28,6.28h-2.28v18.78a4.3,4.3,0,0,1,4.3-4.08h4v0h0v3.94a4.34,4.34,0,0,1-4.16,4.34h-4.13v9.45h46.49a23.36,23.36,0,0,0,6.77-1l.51-.16a23.39,23.39,0,0,0,16.09-22.21v-18A34.35,34.35,0,0,1,157.91,170.73Z"/><path class="cls-7" d="M194.17,106.69a34.17,34.17,0,0,1-9.65,2.89c-.72.1-1.45.18-2.19.24s-1.54.1-2.32.11q1.21,1,2.32,2.13t2.19,2.42a34.26,34.26,0,0,1,7.75,19.8,16.44,16.44,0,0,0,1.9-27.58Z"/><path class="cls-4" d="M181.67,41.17a34.41,34.41,0,0,0-49-23.32,34.53,34.53,0,0,0-18-15.64V111.59a34.38,34.38,0,0,0,36.24-17.07,34.6,34.6,0,0,0,6.59,7.37h.43a34.27,34.27,0,0,1,22.09,8c.78,0,1.55,0,2.32-.11s1.46-.13,2.19-.24a34.41,34.41,0,0,0-2.85-68.41Z"/><path class="cls-4" d="M123.21,160.75v-20h-8.56V167h2.28A6.28,6.28,0,0,0,123.21,160.75Z"/><path class="cls-4" d="M122.91,181.76v0h-4a4.3,4.3,0,0,0-4.3,4.08V190h4.13a4.34,4.34,0,0,0,4.16-4.34v-3.94Z"/><path class="cls-4" d="M119.29,234.41a4.64,4.64,0,0,0-4.64-4.64V239A4.64,4.64,0,0,0,119.29,234.41Z"/><path class="cls-4" d="M119.29,251.63a4.64,4.64,0,0,0-4.64-4.64v9.28A4.64,4.64,0,0,0,119.29,251.63Z"/><path class="cls-4" d="M119.29,268.84a4.64,4.64,0,0,0-4.64-4.64v9.28A4.64,4.64,0,0,0,119.29,268.84Z"/><path class="cls-1" d="M192.27,134.27a34.26,34.26,0,0,0-7.75-19.8q-1-1.26-2.19-2.42T180,109.92a34.27,34.27,0,0,0-22.09-8h-.43a34.41,34.41,0,0,0-33.85,31.44h-9v7.36h9.13a34.41,34.41,0,0,0,68.55-4.4C192.33,135.62,192.31,134.94,192.27,134.27Zm-7.75,10.12a27.62,27.62,0,1,1-.83-18.5q.47,1.16.83,2.37a27.71,27.71,0,0,1,1.19,8s0,0,0,.06A27.79,27.79,0,0,1,184.52,144.38Z"/><path class="cls-5" d="M157.91,108.51a27.8,27.8,0,0,0-27.64,24.83,28.08,28.08,0,0,0-.16,3,28,28,0,0,0,2,10.43l36.19-36.19A27.7,27.7,0,0,0,157.91,108.51Z"/><path class="cls-5" d="M185.71,136.24a27.71,27.71,0,0,0-1.19-8q-.37-1.21-.83-2.37l-1.35,1.35-34.84,34.84a27.79,27.79,0,0,0,38.22-25.77S185.71,136.27,185.71,136.24Z"/><path class="cls-3" d="M182.33,123a27.88,27.88,0,0,0-14-12.5l-36.19,36.19a27.88,27.88,0,0,0,15.34,15.34l34.84-34.84,1.35-1.35A27.66,27.66,0,0,0,182.33,123Z"/></g></g></svg>