<svg xmlns="http://www.w3.org/2000/svg" viewBox="0 0 350 350"><defs><style>.cls-1{fill:#00bcb4;}.cls-2{fill:#3d113c;}.cls-3{fill:#fdb98d;}.cls-4{fill:#fffac2;}.cls-5{fill:#016099;}.cls-6{fill:#fbf9c6;}.cls-7{fill:#270e11;}.cls-8{fill:#fc6719;}</style></defs><title>Element 4Illustrations</title><g id="Ebene_2" data-name="Ebene 2"><g id="Ebene_1-2" data-name="Ebene 1"><path class="cls-1" d="M0,175A174.73,174.73,0,0,0,69.81,314.86v-82H86.58V200.09h21.87V232.9h31.48V213h.2a44.49,44.49,0,0,1-9.41-21.78c-.39-.87-.74-1.76-1.07-2.66H121V93.29a54,54,0,0,1,53.77-54V0A175,175,0,0,0,0,175Z"/><path class="cls-2" d="M174.73,229.68A44.62,44.62,0,0,1,140.14,213h-.2V232.9h34.79Z"/><path class="cls-3" d="M69.81,260.57v54.29A175.16,175.16,0,0,0,86.58,326V260.57Z"/><path class="cls-4" d="M151.42,213a46.06,46.06,0,0,1-20.7-21.78,44.72,44.72,0,0,0,44,38.5V218.74A50.36,50.36,0,0,1,151.42,213Z"/><path class="cls-4" d="M130.69,176.93a44.24,44.24,0,0,0,7.5,11.58,49.22,49.22,0,0,0,36.53,16.08V176.93Z"/><path class="cls-5" d="M121,93.29v95.22h8.69c.33.9.68,1.79,1.07,2.66A46.06,46.06,0,0,0,151.42,213a50.36,50.36,0,0,0,23.31,5.78V204.59a49.22,49.22,0,0,1-36.53-16.08,44.24,44.24,0,0,1-7.5-11.58h44V39.25A54,54,0,0,0,121,93.29Z"/><rect class="cls-5" x="69.81" y="232.9" width="70.13" height="21.88"/><rect class="cls-6" x="69.81" y="254.78" width="70.13" height="5.79"/><path class="cls-3" d="M108.46,260.57v76.31a173.76,173.76,0,0,0,31.48,9.59v-85.9Z"/><path class="cls-3" d="M174.73,250.29V232.9h-29V347.56h0a176.13,176.13,0,0,0,29,2.43v-5.8a5.46,5.46,0,0,1,0-10.91v-9.68a5.46,5.46,0,0,1,0-10.91V281.79a5.46,5.46,0,0,1,0-10.91v-9.66h0a5.46,5.46,0,0,1,0-10.91Z"/><path class="cls-6" d="M139.94,232.9V346.47h0c1.9.39,3.82.75,5.74,1.07V232.9Z"/><path class="cls-6" d="M174.73,250.29a5.46,5.46,0,0,0-2.3,10.28h2.3Z"/><path class="cls-6" d="M172.43,260.57a5.44,5.44,0,0,0,2.3.63v-.63Z"/><path class="cls-6" d="M169.53,276.33a5.46,5.46,0,0,0,5.2,5.46V270.88A5.46,5.46,0,0,0,169.53,276.33Z"/><path class="cls-6" d="M169.53,318.15a5.46,5.46,0,0,0,5.2,5.46V312.7A5.46,5.46,0,0,0,169.53,318.15Z"/><path class="cls-6" d="M169.53,338.74a5.46,5.46,0,0,0,5.2,5.46V333.29A5.46,5.46,0,0,0,169.53,338.74Z"/><path class="cls-1" d="M175,39.25h0a54,54,0,0,1,54,54v95.22h-8.69c-.33.9-.68,1.79-1.07,2.66A44.49,44.49,0,0,1,209.86,213h.2V232.9h70.13v82A175,175,0,0,0,175,0h-.27V39.25Z"/><path class="cls-7" d="M175,229.69h-.27v3.22h35.34V213h-.2A44.62,44.62,0,0,1,175,229.69Z"/><path class="cls-8" d="M210.06,260.57V232.9H174.73v17.39H175a5.47,5.47,0,0,1,0,10.94h-.27v9.66H175a5.47,5.47,0,0,1,0,10.94h-.27V312.7H175a5.47,5.47,0,0,1,0,10.94h-.27v9.68H175a5.47,5.47,0,0,1,0,10.94h-.27V350H175a174.22,174.22,0,0,0,105.19-35.14V260.57Z"/><path class="cls-1" d="M174.73,261.2h0Z"/><path class="cls-1" d="M198.58,213A50.38,50.38,0,0,1,175,218.75h-.27v10.94H175a44.73,44.73,0,0,0,44.28-38.51A46.06,46.06,0,0,1,198.58,213Z"/><path class="cls-1" d="M174.73,176.93v27.66H175a49.24,49.24,0,0,0,36.81-16.08,44.24,44.24,0,0,0,7.5-11.58Z"/><path class="cls-2" d="M175,39.25h-.27V176.93h44.58a44.24,44.24,0,0,1-7.5,11.58A49.24,49.24,0,0,1,175,204.6h-.27v14.15H175A50.38,50.38,0,0,0,198.58,213a46.06,46.06,0,0,0,20.7-21.78c.39-.87.74-1.76,1.07-2.66H229V93.29A54,54,0,0,0,175,39.25Z"/><rect class="cls-2" x="210.06" y="232.9" width="70.13" height="21.88"/><rect class="cls-1" x="210.06" y="254.78" width="70.13" height="5.79"/><path class="cls-1" d="M175,250.28h-.27V261.2H175a5.47,5.47,0,0,0,0-10.94Z"/><path class="cls-1" d="M180.47,276.33a5.47,5.47,0,0,0-5.47-5.47h-.27v10.91H175A5.47,5.47,0,0,0,180.47,276.33Z"/><path class="cls-1" d="M180.47,318.15a5.47,5.47,0,0,0-5.47-5.47h-.27v10.91H175A5.47,5.47,0,0,0,180.47,318.15Z"/><path class="cls-1" d="M180.47,338.74a5.47,5.47,0,0,0-5.47-5.47h-.27V344.2H175A5.47,5.47,0,0,0,180.47,338.74Z"/><path class="cls-5" d="M104.6,200.09V76.56H90.44V200.09H86.58V326a174.3,174.3,0,0,0,21.87,10.85V200.09Z"/></g></g></svg>