<svg xmlns="http://www.w3.org/2000/svg" viewBox="0 0 350 350"><defs><style>.cls-1{fill:#3d113c;}.cls-2{fill:#fdb98d;}.cls-3{fill:#016099;}.cls-4{fill:#fff;}.cls-5{fill:#fc6719;}.cls-6{fill:#00bcb4;}.cls-7{fill:#fffac2;}.cls-8{fill:#424242;}.cls-9{fill:#b3b3b3;}</style></defs><title>Element 30</title><g id="Ebene_2" data-name="Ebene 2"><g id="Ebene_1-2" data-name="Ebene 1"><path class="cls-1" d="M128.45,189.56h21.14V183H124.81v3a3.68,3.68,0,0,0,3.65,3.65Z"/><path class="cls-2" d="M149.59,181.2V170.68H130.13v-1.41a8.75,8.75,0,0,1,8.75-8.75h3.57a5,5,0,0,1-.61-2.41v-3.36H145V134.83h4.55v-15H118.19a6.4,6.4,0,0,1-5.61-3.32v13.35h-4.2a9.53,9.53,0,0,1-2-.22v11.2a8.75,8.75,0,0,0,6.23,8.37V174a8.93,8.93,0,0,0,8.93,8.93h28.09Zm-24.26-42.37v-.74h-7.74a4.11,4.11,0,0,1,4.09-4.09h13.07a4.09,4.09,0,0,1,4.09,4.09h-4.55a2.88,2.88,0,0,1-1.22,5.47h-3A4.74,4.74,0,0,1,125.33,138.84Z"/><path class="cls-3" d="M112.57,129.82V116.46a6.4,6.4,0,0,0,5.61,3.32h31.41V108.24H98.85V120.3a9.53,9.53,0,0,0,9.52,9.52Z"/><path class="cls-4" d="M128.71,140.68a2.88,2.88,0,0,1,1.62-2.58h-5v.74a4.74,4.74,0,0,0,4.74,4.74h1.54A2.89,2.89,0,0,1,128.71,140.68Z"/><path class="cls-4" d="M133.07,138.21a2.9,2.9,0,0,1-1.47,5.37h1.47a2.88,2.88,0,0,0,1.22-5.47h-1.44Z"/><path d="M133.07,143.16a2.87,2.87,0,0,0,0-5l-.21-.11h-2.53a2.88,2.88,0,1,0,2.74,5.06Z"/><path class="cls-1" d="M112.57,108.24h37V76.42H121.37A21.47,21.47,0,0,0,100,95.67H94.14v12.57h18.43Z"/><path class="cls-1" d="M132.86,138.1h6a4.09,4.09,0,0,0-4.09-4.09H121.68a4.11,4.11,0,0,0-4.09,4.09h15.27Z"/><path class="cls-1" d="M146.89,163.15a5,5,0,0,1-4.44-2.64h-3.57a8.75,8.75,0,0,0-8.75,8.75v1.41h19.46v-7.52Z"/><path class="cls-5" d="M146.89,163.15h2.71V134.83H145v19.92h-3.2v3.36a5,5,0,0,0,5,5Z"/><rect class="cls-1" x="78.23" y="76.71" width="6.77" height="114.01"/><path class="cls-1" d="M82.22,301.64a19.63,19.63,0,0,1-4-1.11v20.29q2,1.32,4,2.58Z"/><path class="cls-1" d="M82.22,301.64V323.4q1.38.86,2.77,1.7V301.9A19.88,19.88,0,0,1,82.22,301.64Z"/><path class="cls-2" d="M85,214.46H95V197.63a6.92,6.92,0,0,0-6.92-6.92H77.33a6.92,6.92,0,0,0-6.92,6.92v16.83H85Z"/><path class="cls-3" d="M85,301.9v23.2a173.86,173.86,0,0,0,64.6,23.06V189.56H128.45a3.64,3.64,0,0,1-3.28-2.07A45.27,45.27,0,0,0,95,201.3v13.15h4.8v6.85h-34v60.82A19.74,19.74,0,0,0,85,301.9Z"/><polygon class="cls-1" points="83.7 221.31 84.99 221.31 99.66 221.31 99.77 221.31 99.77 214.46 94.97 214.46 86.11 214.46 84.99 214.46 78.22 214.46 70.41 214.46 65.68 214.46 65.68 221.31 65.72 221.31 78.22 221.31 83.7 221.31"/><path d="M149.59,187.42v2.14H171a3.68,3.68,0,0,0,3.65-3.65v-3h-25Z"/><path class="cls-5" d="M186.84,129.82V116.46a6.4,6.4,0,0,1-5.61,3.32H149.59v15h4.78v19.92h3.2v3.36a5,5,0,0,1-.61,2.41h3.57a8.75,8.75,0,0,1,8.75,8.75v1.41h-19.7V183h28.32a8.93,8.93,0,0,0,8.93-8.93V149.17a8.75,8.75,0,0,0,6.23-8.37V129.6a9.54,9.54,0,0,1-2,.22Zm-5.77,8h-7v.58a4.74,4.74,0,0,1-4.74,4.74h-3a2.88,2.88,0,0,1-1.51-5.31h-4.26a4.09,4.09,0,0,1,4.09-4.09h13.07a4.11,4.11,0,0,1,4.09,4.09Z"/><path class="cls-1" d="M186.84,108.24H149.59v11.55h31.64a6.4,6.4,0,0,0,5.61-3.32v13.35H191a9.53,9.53,0,0,0,9.52-9.52V108.24H186.84Z"/><path class="cls-4" d="M170.71,140.21a2.89,2.89,0,0,1-2.89,2.89h1.54a4.74,4.74,0,0,0,4.74-4.74v-.58h-4.71A2.88,2.88,0,0,1,170.71,140.21Z"/><path class="cls-4" d="M166.35,142.69a2.86,2.86,0,0,1-.07-4.9h-1.43a2.88,2.88,0,0,0,1.51,5.31h1.47a3,3,0,0,1-1.47-.41Z"/><path d="M170.71,140.21a2.88,2.88,0,0,0-1.33-2.43h-3.11a2.88,2.88,0,1,0,4.43,2.43Z"/><path d="M149.59,95.67v12.57h67.88V108a12.33,12.33,0,0,0-12.33-12.33H199.4A21.47,21.47,0,0,0,178,76.42H149.59V95.67Z"/><path class="cls-1" d="M177.73,133.69H164.67a4.09,4.09,0,0,0-4.09,4.09h21.26a4.11,4.11,0,0,0-4.09-4.09Z"/><path d="M169.29,169.27a8.75,8.75,0,0,0-8.75-8.75H157a5,5,0,0,1-4.44,2.64h-2.94v7.52h19.7Z"/><path class="cls-1" d="M149.59,160.51v2.64h2.94a5,5,0,0,0,5-5v-3.36h-3.2V134.83h-4.78v25.69Z"/><path class="cls-6" d="M195.18,190.49h13.74V159.18a9.36,9.36,0,0,1,9.36-9.36v28.5h63V149.94a9.36,9.36,0,0,1,9.36,9.36v31.19h13.74a16.55,16.55,0,0,1-13.31,16.23,78.76,78.76,0,0,1,36.25,54.49A175,175,0,1,0,78.23,320.82V300.53a19.78,19.78,0,0,1-12.5-18.39V221.31h0v-6.85h4.73V197.63a6.92,6.92,0,0,1,6.92-6.92h.9v-114H85v114h3.06A6.92,6.92,0,0,1,95,197.63v3.67a45.27,45.27,0,0,1,30.21-13.82,3.61,3.61,0,0,1-.37-1.58v-3h-3.3a8.93,8.93,0,0,1-8.93-8.93V149.17a8.75,8.75,0,0,1-6.23-8.37V129.6a9.52,9.52,0,0,1-7.5-9.3V108.24H94.14V95.67H100a21.47,21.47,0,0,1,21.35-19.25H178A21.47,21.47,0,0,1,199.4,95.67h5.74A12.33,12.33,0,0,1,217.47,108v.23H200.57V120.3a9.52,9.52,0,0,1-7.5,9.3v11.2a8.75,8.75,0,0,1-6.23,8.37V174a8.93,8.93,0,0,1-8.93,8.93h-3.3v3a3.61,3.61,0,0,1-.37,1.58,45.15,45.15,0,0,1,21.37,6.7,16.55,16.55,0,0,1-.43-3.69Z"/><path class="cls-6" d="M267.77,293a27.62,27.62,0,0,0-18,6.68v33.58a175.25,175.25,0,0,0,41.44-27.41A27.71,27.71,0,0,0,267.77,293Z"/><path class="cls-1" d="M216.66,225.93c0,.24.07.47.1.71C216.73,226.4,216.7,226.17,216.66,225.93Z"/><path class="cls-1" d="M215.13,219.29q.15.47.28.94Q215.27,219.75,215.13,219.29Z"/><path class="cls-1" d="M216.93,228q0,.37.07.75Q217,228.34,216.93,228Z"/><path class="cls-1" d="M211.74,211.27q.31.56.59,1.14Q212,211.83,211.74,211.27Z"/><path class="cls-1" d="M212.6,212.95c.18.38.37.76.54,1.14C213,213.7,212.79,213.33,212.6,212.95Z"/><path class="cls-1" d="M215.69,221.24c.08.29.15.57.22.86C215.84,221.81,215.76,221.53,215.69,221.24Z"/><path class="cls-1" d="M216.24,223.59c0,.23.09.46.14.68C216.33,224,216.29,223.81,216.24,223.59Z"/><path class="cls-1" d="M213.36,214.58q.46,1,.86,2.11Q213.81,215.62,213.36,214.58Z"/><path class="cls-1" d="M179.54,305a27.74,27.74,0,1,0-5-55,78.91,78.91,0,0,1,33.75-43.37l.27.07.47.07a45.37,45.37,0,0,0-34.74-19.3,3.64,3.64,0,0,1-3.28,2.07H149.59v158.6a176.6,176.6,0,0,0,21.3,1.79V303.66A27.7,27.7,0,0,0,179.54,305Z"/><path class="cls-1" d="M217.1,230.12c0,.22,0,.44,0,.66C217.13,230.55,217.11,230.33,217.1,230.12Z"/><path class="cls-1" d="M214.5,217.41c.12.32.23.65.34,1C214.72,218.06,214.61,217.73,214.5,217.41Z"/><path class="cls-1" d="M209,206.8a45.57,45.57,0,0,1,2.51,4A45.43,45.43,0,0,0,209,206.8Z"/><path class="cls-7" d="M249.73,299.69a27.7,27.7,0,0,0-5.33,36q2.69-1.16,5.33-2.42Z"/><path class="cls-6" d="M214.22,216.68c.09.24.19.48.28.73C214.41,217.17,214.31,216.92,214.22,216.68Z"/><path class="cls-6" d="M213.14,214.09l.21.49Z"/><path class="cls-6" d="M212.34,212.41l.27.54Z"/><polygon class="cls-6" points="208.97 206.79 208.97 206.79 208.98 206.8 208.97 206.79"/><path class="cls-6" d="M211.49,210.82l.25.45Z"/><path class="cls-6" d="M217,228.72c0,.46.08.93.1,1.4C217.07,229.65,217,229.18,217,228.72Z"/><path class="cls-6" d="M217.14,230.77c0,.68.05,1.37.05,2.06C217.19,232.14,217.17,231.46,217.14,230.77Z"/><path class="cls-6" d="M216.76,226.64c.06.44.12.88.16,1.33C216.88,227.52,216.82,227.08,216.76,226.64Z"/><path class="cls-6" d="M215.41,220.22c.1.34.19.68.28,1C215.6,220.9,215.5,220.56,215.41,220.22Z"/><path class="cls-6" d="M216.38,224.27q.16.82.29,1.66Q216.54,225.09,216.38,224.27Z"/><path class="cls-6" d="M214.83,218.39c.1.3.2.6.29.9C215,219,214.93,218.69,214.83,218.39Z"/><path class="cls-6" d="M215.91,222.1c.12.49.23,1,.33,1.48C216.14,223.09,216,222.59,215.91,222.1Z"/><path class="cls-6" d="M238.19,253.36a12,12,0,0,0-2.4.24,12,12,0,0,1,2.4-.24Z"/><path class="cls-6" d="M249.61,284.57H235.39a17.18,17.18,0,0,1-17.18-17.18V207h-6.49a16.52,16.52,0,0,1-2.75-.25l-.47-.07-.27-.07A78.91,78.91,0,0,0,174.49,250a27.74,27.74,0,1,1-3.6,53.63v46.29c1.37,0,2.74.05,4.11.05a174.45,174.45,0,0,0,69.41-14.32,27.7,27.7,0,0,1,5.33-36V284.57Z"/><path class="cls-6" d="M234.9,214.65H233.5a4.32,4.32,0,0,1-3.07-1.27,4.32,4.32,0,0,0,3.07,1.27h1.41Z"/><path class="cls-6" d="M237.27,209.58a2.63,2.63,0,0,1,.51.3A2.63,2.63,0,0,0,237.27,209.58Z"/><path class="cls-6" d="M229.16,210.31a4.32,4.32,0,0,0,.74,2.43A4.32,4.32,0,0,1,229.16,210.31Z"/><path class="cls-7" d="M207.28,277.3A27.72,27.72,0,0,0,174.49,250a78.68,78.68,0,0,0-3.6,23.6v0h0v30a27.74,27.74,0,0,0,36.39-26.36Z"/><path class="cls-1" d="M263.34,209.35h0a2.64,2.64,0,0,0-1,.22,2.64,2.64,0,0,1,1-.22Z"/><path class="cls-1" d="M264.69,214.65h1.41a4.32,4.32,0,0,0,3.07-1.27,4.32,4.32,0,0,1-3.07,1.27Z"/><path class="cls-1" d="M270.43,210.31a4.29,4.29,0,0,1-.48,1.95A4.29,4.29,0,0,0,270.43,210.31Z"/><path class="cls-1" d="M261.36,253.36h0a12.07,12.07,0,0,1,1.22.06A12.07,12.07,0,0,0,261.36,253.36Z"/><path class="cls-1" d="M293.18,239.53a27.7,27.7,0,0,1,11.29-22.34,79.08,79.08,0,0,0-13.4-10.48h0a16.63,16.63,0,0,1-3.22.31h-6.49V267.4a17.18,17.18,0,0,1-17.18,17.18H249.73v15.11a27.72,27.72,0,0,1,41.44,6.17,175.83,175.83,0,0,0,32.64-38.75,27.63,27.63,0,0,1-30.64-27.58Z"/><path class="cls-1" d="M261.5,210.14a2.65,2.65,0,0,1,.83-.57A2.65,2.65,0,0,0,261.5,210.14Z"/><path class="cls-7" d="M293.18,239.53a27.63,27.63,0,0,0,30.64,27.58q1.81-2.91,3.5-5.9a78.51,78.51,0,0,0-22.84-44A27.7,27.7,0,0,0,293.18,239.53Z"/><path class="cls-8" d="M208.92,159.18v31.31h9.36V149.82A9.36,9.36,0,0,0,208.92,159.18Z"/><path class="cls-4" d="M236.25,214.65h0Z"/><path class="cls-4" d="M236.25,209.35h0Z"/><path class="cls-4" d="M230.43,213.38a4.32,4.32,0,0,0,3.07,1.27h1.41a2.65,2.65,0,1,1,0-5.29h-5.74v1a4.33,4.33,0,0,0,1.27,3.07Z"/><path class="cls-4" d="M236.25,209.73a2.65,2.65,0,0,1-1.35,4.92h1.35a2.64,2.64,0,0,0,0-5.29H234.9a2.76,2.76,0,0,1,1.35.38Z"/><path d="M232.26,212a2.62,2.62,0,0,0,3.3,2.56,2.65,2.65,0,0,0-.65-5.2A2.65,2.65,0,0,0,232.26,212Z"/><path class="cls-6" d="M226.28,265.28a11.91,11.91,0,0,0,11.91,11.91h11.41V253.36H238.19a12,12,0,0,0-2.4.24q-.58.12-1.14.29A11.92,11.92,0,0,0,226.28,265.28Zm11.61,0h5a1.88,1.88,0,0,1,0,3.76h-2a3.08,3.08,0,0,1-3.08-3.08Z"/><path class="cls-1" d="M281.34,190.49h9.3V159.3a9.36,9.36,0,0,0-9.36-9.36v40.55Z"/><path class="cls-7" d="M209,206.79l-.28-.41-.46.27.27.07Z"/><path class="cls-7" d="M218.28,178.32v12.17h-23.1a16.61,16.61,0,0,0,13.06,16.17l.46-.27.28.41a16.52,16.52,0,0,0,2.75.25h6.49V267.4a17.18,17.18,0,0,0,17.18,17.18h14.21v-7.38H238.19a11.91,11.91,0,0,1-11.91-11.91h0a11.92,11.92,0,0,1,8.37-11.38q.56-.17,1.14-.29a12,12,0,0,1,2.4-.24h11.41v-75Zm18,36.32H233.5a4.34,4.34,0,0,1-4.34-4.34v-1h7.09a2.64,2.64,0,0,1,0,5.29Z"/><path class="cls-7" d="M238.65,211a2.64,2.64,0,0,1,.2,1A2.63,2.63,0,0,0,238.65,211Z"/><path class="cls-7" d="M238.65,211a2.65,2.65,0,0,0-.88-1.11A2.65,2.65,0,0,1,238.65,211Z"/><path class="cls-7" d="M236.25,214.64h0a2.64,2.64,0,0,0,2.61-2.64A2.64,2.64,0,0,1,236.25,214.64Z"/><path class="cls-7" d="M238.19,277.19a11.91,11.91,0,0,1-3.54-23.29,11.92,11.92,0,0,0-8.37,11.38h0a11.91,11.91,0,0,0,11.91,11.91h0Z"/><rect class="cls-3" x="249.61" y="277.19" width="0.13" height="7.38"/><path class="cls-3" d="M249.61,207v46.33h.13V194.91h-.13V207Z"/><path class="cls-3" d="M290.63,190.49h-9.36V178.32H249.61v16.59h.13v58.45h11.63a12.07,12.07,0,0,1,1.22.06,11.91,11.91,0,0,1,10.69,11.85h0a11.91,11.91,0,0,1-11.91,11.91H249.73v7.38h14.43a17.18,17.18,0,0,0,17.18-17.18V207h6.49a16.63,16.63,0,0,0,3.22-.31h0a16.55,16.55,0,0,0,13.31-16.23Zm-20.2,19.82a4.29,4.29,0,0,1-.48,1.95,4.24,4.24,0,0,1-3.86,2.39h-2.75a2.64,2.64,0,0,1,0-5.29h7.09Z"/><path class="cls-9" d="M263.38,214.65h0Z"/><path class="cls-9" d="M263.38,209.35h0Z"/><path class="cls-4" d="M267.33,212a2.65,2.65,0,0,1-2.65,2.65h1.41a4.39,4.39,0,0,0,4.34-4.34v-1h-5.74A2.65,2.65,0,0,1,267.33,212Z"/><path class="cls-4" d="M269.95,212.26a4.34,4.34,0,0,1-.79,1.12A4.34,4.34,0,0,0,269.95,212.26Z"/><path class="cls-4" d="M263.34,214.64h1.35a2.65,2.65,0,0,1,0-5.29h-1.35a2.64,2.64,0,0,0,0,5.29Z"/><path class="cls-4" d="M260.94,211a2.65,2.65,0,0,1,.56-.84A2.65,2.65,0,0,0,260.94,211Z"/><path class="cls-4" d="M260.73,212a2.63,2.63,0,0,1,.2-1A2.63,2.63,0,0,0,260.73,212Z"/><path class="cls-4" d="M263.34,214.64h0a2.64,2.64,0,0,1-2.61-2.64A2.64,2.64,0,0,0,263.34,214.64Z"/><path d="M263.34,209.73a2.76,2.76,0,1,0,.69-.29A2.64,2.64,0,0,0,263.34,209.73Z"/><polygon class="cls-1" points="249.61 277.19 249.73 277.19 249.73 253.36 249.61 253.36 249.61 253.36 249.61 277.19 249.61 277.19"/><path class="cls-1" d="M261.36,277.19a11.91,11.91,0,0,0,1.22-23.76,12.07,12.07,0,0,0-1.22-.06H249.73v23.83Zm-5.56-11.93h5v.68a3.08,3.08,0,0,1-3.08,3.08h-2a1.88,1.88,0,0,1,0-3.76Z"/><circle class="cls-1" cx="249.61" cy="277.19"/><polygon class="cls-1" points="249.73 277.19 249.61 277.19 249.61 277.19 249.73 277.19 249.73 277.19"/><path class="cls-1" d="M273.27,265.28a11.91,11.91,0,0,1-11.91,11.91h0a11.91,11.91,0,0,0,11.91-11.91h0a11.91,11.91,0,0,0-10.69-11.85A11.91,11.91,0,0,1,273.27,265.28Z"/><path class="cls-3" d="M241,269h2a1.88,1.88,0,0,0,0-3.76h-5v.68A3.08,3.08,0,0,0,241,269Z"/><path class="cls-3" d="M255.8,269h2a3.08,3.08,0,0,0,3.08-3.08v-.68h-5a1.88,1.88,0,0,0,0,3.76Z"/></g></g></svg>