<svg xmlns="http://www.w3.org/2000/svg" viewBox="0 0 350 350"><defs><style>.cls-1{fill:#00bcb4;}.cls-2{fill:#fffac2;}.cls-3{fill:#fc6719;}.cls-4{fill:#fdb98d;}.cls-5{fill:#3d113c;}.cls-6{fill:#016099;}.cls-7{fill:#009688;}.cls-8{fill:#fff;}</style></defs><title>Element 34</title><g id="Ebene_2" data-name="Ebene 2"><g id="Ebene_1-2" data-name="Ebene 1"><path class="cls-1" d="M114.47,161.48a17.94,17.94,0,0,1-5.19-3.48v77.26h65.67v-23.5A61.59,61.59,0,0,1,114.47,161.48Z"/><path class="cls-2" d="M123.41,316.66a35.86,35.86,0,0,1,51.53-49.83V235.25H109.27V158a17.84,17.84,0,0,1-5.37-10.81q-3,2-5.85,4.21V300.58H53.13a175.35,175.35,0,0,0,47.44,32.84A67.5,67.5,0,0,1,123.41,316.66Z"/><path class="cls-3" d="M132.42,105.69a28.36,28.36,0,0,0-22.71,26.09,17.86,17.86,0,0,1,8-4.14A61.72,61.72,0,0,1,132.42,105.69Z"/><path class="cls-4" d="M114.47,161.48a61.59,61.59,0,0,0,60.48,50.27V189.56H162.86a4.75,4.75,0,0,1-4.75-4.75v-3h16.83v-13.1h-4.6a5.06,5.06,0,0,1,0-10.12h4.6V104.34h-27V97.65a12.94,12.94,0,0,1,.36-3,61.88,61.88,0,0,0-30.58,33,17.9,17.9,0,0,0-13.88,16.64c0,.27,0,.54,0,.81a17.95,17.95,0,0,0,10.7,16.39Zm45-17.33a2.87,2.87,0,0,1-2.78,2.36h-3A4.71,4.71,0,0,1,149,141.8v-1h7.69a2.84,2.84,0,0,1,2.78,3.38Zm-8.63-16.39a5.7,5.7,0,0,1,3.38-1.11h5.28v5.73h-11A5.72,5.72,0,0,1,150.79,127.76Z"/><path class="cls-2" d="M152.36,144.15a2.84,2.84,0,0,1,2.82-3.38H149v1a4.71,4.71,0,0,0,4.71,4.71h1.53A2.87,2.87,0,0,1,152.36,144.15Z"/><path class="cls-2" d="M156.64,140.77h-1.46a2.84,2.84,0,0,1,2.82,3.38,2.87,2.87,0,0,1-1.36,2,3,3,0,0,1-1.46.41h1.46a2.87,2.87,0,0,0,0-5.73Z"/><path d="M156.64,146.1a2.87,2.87,0,0,0,1.36-2h-5.64a2.86,2.86,0,0,0,4.28,2Z"/><path d="M152.31,143.64a2.87,2.87,0,0,0,.05.51H158a2.9,2.9,0,0,0-2.82-3.38A2.87,2.87,0,0,0,152.31,143.64Z"/><path class="cls-3" d="M170.34,158.59a5.06,5.06,0,0,0,0,10.12h4.6V158.59Z"/><path class="cls-3" d="M158.11,181.81v3a4.75,4.75,0,0,0,4.75,4.75h12.08v-7.75Z"/><path class="cls-3" d="M159.45,126.65h-5.28a5.75,5.75,0,0,0-5.73,5.73h11Z"/><path class="cls-3" d="M147.91,104.34h27V84.7H160.86a13,13,0,0,0-13,13Z"/><path class="cls-2" d="M72.45,144.27H85.57V90.17A24.45,24.45,0,0,0,61.13,65.73V114H72.45Z"/><path class="cls-3" d="M72.45,162.15V114H59.09v48.19a21.48,21.48,0,0,1,13.36,0Z"/><path class="cls-4" d="M65.77,161.08a21.47,21.47,0,0,0-21.47,21.47v3.61H87.24v-3.61a21.47,21.47,0,0,0-21.47-21.47Z"/><path class="cls-1" d="M57.39,300.58H98.05V151.4a127.76,127.76,0,0,0-17.24,15.84,21.4,21.4,0,0,1,6.43,15.32v3.61H35.48v77.1A24.46,24.46,0,0,0,47.1,284.1v10.33q2.94,3.15,6,6.15Z"/><path class="cls-5" d="M174.94,327.23a35.77,35.77,0,0,0-11,22.41c3.65.23,7.33.36,11,.36Z"/><path class="cls-5" d="M150,256.76a35.87,35.87,0,0,0-26.62,59.91,67.5,67.5,0,0,0-22.83,16.76,174,174,0,0,0,63.33,16.22,35.77,35.77,0,0,1,11-22.41V266.83A35.74,35.74,0,0,0,150,256.76Z"/><path class="cls-6" d="M292.61,300.58h4.25q2.19-2.13,4.32-4.33v-29A126.18,126.18,0,0,1,292.61,300.58Z"/><path class="cls-6" d="M296.87,300.58h-4.25c-.92,2.25-1.91,4.45-3,6.63Q293.36,304,296.87,300.58Z"/><path class="cls-6" d="M251.95,332.21a175.27,175.27,0,0,0,37.71-25c1-2.18,2-4.38,3-6.63H251.95Z"/><path class="cls-6" d="M177.14,316.1a67,67,0,0,1,8.29,4.22A35.88,35.88,0,0,1,233,340.16a173.93,173.93,0,0,0,19-7.95V300.58H185A35.74,35.74,0,0,1,177.14,316.1Z"/><path class="cls-1" d="M185,300.58h66.95V288.15H240.72v-52.9H174.94v31.58A35.82,35.82,0,0,1,185,300.58Z"/><path class="cls-1" d="M240.72,235.25h11.22V151.4q-2.86-2.18-5.85-4.21A17.84,17.84,0,0,1,240.72,158Z"/><rect class="cls-6" x="240.72" y="235.25" width="11.22" height="5.16"/><rect class="cls-6" x="240.72" y="240.41" width="11.22" height="47.74"/><path class="cls-5" d="M240.29,131.78a28.36,28.36,0,0,0-22.71-26.09,61.72,61.72,0,0,1,14.74,21.94A17.87,17.87,0,0,1,240.29,131.78Z"/><path class="cls-3" d="M202.09,104.34H174.94v54.25h4.71a5.06,5.06,0,1,1,0,10.12h-4.71v13.1H192.6v3a4.75,4.75,0,0,1-4.75,4.75h-12.9v22.19H175a61.6,61.6,0,0,0,60.53-50.27,18.07,18.07,0,0,0,10.7-16.39c0-.27,0-.54,0-.81a17.9,17.9,0,0,0-13.88-16.64,61.88,61.88,0,0,0-30.58-33,12.94,12.94,0,0,1,.36,3Zm-1,37a4.72,4.72,0,0,1-4.71,4.71h-3a2.87,2.87,0,0,1,0-5.73H201Zm-10.49-9v-5.73h5.28a5.75,5.75,0,0,1,5.73,5.73Z"/><path class="cls-4" d="M197.69,143.17a2.91,2.91,0,0,1-2.87,2.87h1.53a4.72,4.72,0,0,0,4.71-4.71v-1h-6.23A2.87,2.87,0,0,1,197.69,143.17Z"/><path class="cls-4" d="M193.36,145.63a2.89,2.89,0,0,1-1.23-1.48,2.82,2.82,0,0,1-.18-1,2.92,2.92,0,0,1,2.87-2.87h-1.46a2.87,2.87,0,0,0-2.83,2.87,2.9,2.9,0,0,0,2.83,2.87h1.46a3,3,0,0,1-1.46-.41Z"/><path d="M197.51,144.15a2.84,2.84,0,0,0,.18-1,2.87,2.87,0,0,0-2.87-2.87,2.85,2.85,0,0,0-2.69,3.85,2.89,2.89,0,0,0,1.23,1.48,2.84,2.84,0,0,0,4.15-1.48Z"/><path class="cls-5" d="M184.72,163.65a5.06,5.06,0,0,0-5.06-5.06h-4.71v10.12h4.71A5.06,5.06,0,0,0,184.72,163.65Z"/><path class="cls-5" d="M192.6,184.81v-3H174.94v7.75h12.9A4.75,4.75,0,0,0,192.6,184.81Z"/><path class="cls-5" d="M199.21,127.76a5.7,5.7,0,0,0-3.38-1.11h-5.28v5.73h11A5.72,5.72,0,0,0,199.21,127.76Z"/><path class="cls-5" d="M174.94,104.34h27.15V97.65a13,13,0,0,0-13-13h-14.2v19.64Z"/><path class="cls-6" d="M199.59,317.4a35.74,35.74,0,0,0-14.17,2.91,67.59,67.59,0,0,1,24.86,26.13A173.61,173.61,0,0,0,233,340.16,35.87,35.87,0,0,0,199.59,317.4Z"/><path class="cls-6" d="M177.14,316.1q-1,1.21-2.19,2.32v8.81a35.9,35.9,0,0,1,10.48-6.91A67,67,0,0,0,177.14,316.1Z"/><path class="cls-6" d="M175,350a175.79,175.79,0,0,0,35.28-3.56,67.59,67.59,0,0,0-24.86-26.13,35.9,35.9,0,0,0-10.48,6.91V350Z"/><path class="cls-6" d="M185,300.58a35.82,35.82,0,0,0-10.06-33.74v33.74Z"/><path class="cls-6" d="M174.94,300.58v14.65c.74.28,1.47.56,2.19.87A35.74,35.74,0,0,0,185,300.58Z"/><path class="cls-6" d="M174.94,315.23v3.18q1.15-1.11,2.19-2.32C176.41,315.79,175.68,315.51,174.94,315.23Z"/><path class="cls-6" d="M240.72,158a18,18,0,0,1-5.19,3.48A61.6,61.6,0,0,1,175,211.75h-.06v23.5h65.78Z"/><path class="cls-6" d="M301.18,296.25A175,175,0,1,0,47.1,294.42V284.1a24.46,24.46,0,0,1-11.62-20.83v-77.1h8.82v-3.61a21.48,21.48,0,0,1,14.79-20.41V114h2V65.73A24.45,24.45,0,0,1,85.57,90.17v54.1H72.45v17.87a21.46,21.46,0,0,1,8.36,5.09A127.75,127.75,0,0,1,98.05,151.4q2.86-2.18,5.85-4.21a17.89,17.89,0,0,1-.13-2.1c0-.27,0-.54,0-.81a17.84,17.84,0,0,1,5.9-12.5,28.36,28.36,0,0,1,22.71-26.09,61.7,61.7,0,0,1,15.84-11,13,13,0,0,1,12.6-10h28.28a13,13,0,0,1,12.6,10,61.69,61.69,0,0,1,15.84,11,28.36,28.36,0,0,1,22.71,26.09,17.84,17.84,0,0,1,5.9,12.5c0,.27,0,.54,0,.81a18,18,0,0,1-.13,2.1q3,2,5.85,4.21v89h49.52c.38,4,.57,8,.57,12.08a128.29,128.29,0,0,1-.86,14.78Z"/><path class="cls-1" d="M300.93,240.41h-49v60.17h40.67a126.18,126.18,0,0,0,8.57-33.31,128.29,128.29,0,0,0,.86-14.78c0-4.07-.2-8.1-.57-12.08h-.53Z"/><path class="cls-5" d="M259.92,245.55l-.26,0,.26,0Z"/><path class="cls-5" d="M288.07,248.77a48.92,48.92,0,0,1-47.32,57.67h0v30.78a175.58,175.58,0,0,0,77.8-62.1A97.83,97.83,0,0,0,288.07,248.77Z"/><path class="cls-3" d="M233.21,274.94a1.91,1.91,0,0,0,0,2.14,1.91,1.91,0,0,1,0-2.14Z"/><path class="cls-3" d="M240.73,337.22V306.44H240a48.89,48.89,0,0,1-48.32-56.35,97.31,97.31,0,0,0-48,83.94c0,.06,0,.12,0,.18h0v13a175.82,175.82,0,0,0,97.12-10Z"/><path class="cls-3" d="M236.71,276a1.91,1.91,0,0,1-.15.74A1.91,1.91,0,0,0,236.71,276Z"/><path class="cls-3" d="M206.82,221.62a49.11,49.11,0,0,1,6.07-4.78q1.61-1.07,3.31-2t3.48-1.76h-6.29a20.65,20.65,0,0,0-20.65,20.65h4.54q.95-1.7,2-3.31A49.18,49.18,0,0,1,206.82,221.62Z"/><path class="cls-4" d="M240.75,236.65h0v30h0Z"/><path class="cls-4" d="M240.75,302.2v-18h0v22.21h0Z"/><path class="cls-4" d="M240,208.66a48.71,48.71,0,0,0-20.28,4.39q-1.78.81-3.48,1.76t-3.31,2A49.16,49.16,0,0,0,199.3,230.4q-1.08,1.61-2,3.31h0a48.56,48.56,0,0,0-5.59,16.09c0,.1,0,.2,0,.3A48.89,48.89,0,0,0,240,306.45h.77V284.23h-7.95a8.81,8.81,0,0,1-7.74-4.6q-.2-.37-.37-.77a8.75,8.75,0,0,1-.65-2.52,8.94,8.94,0,0,1,0-.9,8.8,8.8,0,0,1,8.8-8.8h7.95v-30h0v-28Zm-13.31,41.41h-9.58a3.9,3.9,0,0,1-3.9-3.9v-.6h6.56l.26,0,.26,0h2.49a3.9,3.9,0,0,1,3.9,3.9Z"/><path class="cls-4" d="M199.3,230.4q-1.08,1.61-2,3.31h0Q198.22,232,199.3,230.4Z"/><path class="cls-4" d="M235.87,274.43a1.91,1.91,0,0,0-2.42.23,1.94,1.94,0,0,0-.23.28,1.91,1.91,0,0,0,0,2.14,1.92,1.92,0,0,0,.52.52,1.91,1.91,0,1,0,2.14-3.17Z"/><path d="M220.27,245.58l-.26,0-.26,0h.53Z"/><path class="cls-5" d="M275.84,224.34a49.1,49.1,0,0,1,4.79,6.06q1.08,1.61,2,3.31H287a20.65,20.65,0,0,0-20.65-20.65h-6.12q1.78.81,3.48,1.76A49.08,49.08,0,0,1,275.84,224.34Z"/><path class="cls-3" d="M288.07,248.77h0a48.56,48.56,0,0,0-5.41-15.05q-.95-1.7-2-3.31a49.14,49.14,0,0,0-16.9-15.59q-1.7-.95-3.48-1.76a48.68,48.68,0,0,0-19.49-4.38v58h6.38a8.8,8.8,0,0,1,8.11,12.22q-.17.39-.37.77a8.81,8.81,0,0,1-7.73,4.6h-6.38v22.21a48.92,48.92,0,0,0,47.32-57.67Zm-21.32-2.59a3.9,3.9,0,0,1-3.9,3.9h-9.58v-.6s0-.05,0-.08a3.88,3.88,0,0,1,3.89-3.82h2.49l.26,0h0l.24,0h6.59Z"/><path class="cls-2" d="M255.53,272.82a8.8,8.8,0,0,0-8.4-6.18H232.79a8.79,8.79,0,0,0-8.8,8.8,8.94,8.94,0,0,0,0,.9,8.75,8.75,0,0,0,.65,2.52q.17.39.37.77a8.81,8.81,0,0,0,7.74,4.6h14.34a8.81,8.81,0,0,0,7.73-4.6q.2-.37.37-.77a8.83,8.83,0,0,0,.3-6Zm-19,3.93a1.89,1.89,0,0,1-.18.32,1.91,1.91,0,0,1-2.94.28,1.94,1.94,0,0,1-.23-.28,1.91,1.91,0,0,1,0-2.14,2,2,0,0,1,.23-.28,1.91,1.91,0,0,1,3.11,2.1Zm9,1.13A1.91,1.91,0,1,1,247,276,1.91,1.91,0,0,1,245.51,277.88Z"/><path class="cls-2" d="M235.87,274.43a1.91,1.91,0,0,0-2.14,0,1.91,1.91,0,0,1,2.14,0Z"/><path class="cls-3" d="M247,276a1.91,1.91,0,1,0-1.53,1.87A1.91,1.91,0,0,0,247,276Z"/><path class="cls-3" d="M243.36,276.76a1.91,1.91,0,0,1-.15-.74A1.9,1.9,0,0,0,243.36,276.76Z"/><path class="cls-3" d="M245.12,274.1a1.91,1.91,0,0,0-1.48.7,1.91,1.91,0,1,1,1.86,3.09,1.91,1.91,0,0,0-.39-3.79Z"/><path class="cls-3" d="M243.21,276a1.91,1.91,0,0,1,.15-.74A1.9,1.9,0,0,0,243.21,276Z"/><path class="cls-3" d="M243.54,277.08a1.92,1.92,0,0,0,.84.69A1.92,1.92,0,0,1,243.54,277.08Z"/><path class="cls-7" d="M260.18,245.58h0l-.24,0-.26,0h.53Z"/><path class="cls-7" d="M259.92,245.55h0l.24,0Z"/><path class="cls-5" d="M217.76,247.8a2.24,2.24,0,0,0,2.16,2.23H220a2.24,2.24,0,0,0,.26-4.46h-.53A2.24,2.24,0,0,0,217.76,247.8Z"/><path class="cls-8" d="M226.65,249.48a3.9,3.9,0,0,0-3.9-3.9h-2.49A2.24,2.24,0,0,1,220,250h-.09a2.23,2.23,0,0,1-.18-4.45h-6.56v.6a3.9,3.9,0,0,0,3.9,3.9h9.58Z"/><path class="cls-8" d="M262.85,250.08a3.9,3.9,0,0,0,3.9-3.9v-.6h-6.56A2.23,2.23,0,0,1,260,250h-.09a2.24,2.24,0,0,1-.26-4.46h-2.49a3.89,3.89,0,0,0-3.89,3.82s0,.05,0,.08v.6h9.58Z"/><path class="cls-8" d="M253.28,249.4a3.89,3.89,0,0,1,1-2.55A3.89,3.89,0,0,0,253.28,249.4Z"/><path class="cls-8" d="M262.85,250.08a3.9,3.9,0,0,0,3.9-3.9v-.6h0v.6A3.9,3.9,0,0,1,262.85,250.08Z"/><path class="cls-5" d="M257.67,247.8a2.24,2.24,0,0,0,2.24,2.24H260a2.23,2.23,0,0,0,.18-4.45h-.53A2.24,2.24,0,0,0,257.67,247.8Z"/></g></g></svg>