<svg xmlns="http://www.w3.org/2000/svg" viewBox="0 0 350 350"><defs><style>.cls-1{fill:#fffac2;}.cls-2{fill:#016099;}.cls-3{fill:#3d113c;}.cls-4{fill:#fdb98d;}.cls-5{fill:#fc6719;}.cls-6{fill:#00bcb4;}.cls-7{fill:#273329;}</style></defs><title>Element 31</title><g id="Ebene_2" data-name="Ebene 2"><g id="Ebene_1-2" data-name="Ebene 1"><path class="cls-1" d="M77.31,259.27V214.81H82V197.63a6.92,6.92,0,0,1,6.92-6.92H90.7v-65h0V92a12.75,12.75,0,1,0-13.62,12.72v6.78A19.52,19.52,0,1,1,97.51,92s0,.05,0,.08h0v98.61h.39A50.38,50.38,0,0,1,132,164.8v-8.09a11.8,11.8,0,0,1-7.83-11.11V119.48c0-.07,0-.14,0-.22H106.61V106.7h18.64A40,40,0,0,1,165.2,68.91h19.6a40,40,0,0,1,39.95,37.79h18.64v12.57H225.85c0,.07,0,.14,0,.22V145.6A11.8,11.8,0,0,1,218,156.71v8.09a50.33,50.33,0,0,1,39.66,45.68h.08a27.93,27.93,0,0,1,20.51,9h24.63s0,.08,0,.13a14.18,14.18,0,0,1-14.18,14.18h-3.4a27.88,27.88,0,0,1,.39,4.64v24.39c.36,0,.72,0,1.08,0a33.44,33.44,0,0,1,28.79,16.41A175,175,0,1,0,90.7,328.38V278.8A20.94,20.94,0,0,1,77.31,259.27Z"/><path class="cls-1" d="M166.78,220.73a34.69,34.69,0,0,1-25-10.6V346.84A175.86,175.86,0,0,0,175,350V220.73Z"/><path class="cls-2" d="M141.78,210.12a34.69,34.69,0,0,0,25,10.6H175V182.4h-6.53a4.09,4.09,0,0,1-4.09-4.09H175v-7.92H160a22.17,22.17,0,0,1-20.16-13c-.28-.61-.53-1.23-.75-1.87a22.09,22.09,0,0,1-1.26-7.33v-1.38a8.75,8.75,0,0,1-6-8.3V125.46h6v-6.19H124.15c0,.07,0,.14,0,.22V145.6A11.8,11.8,0,0,0,132,156.71v29.21A34.68,34.68,0,0,0,141.78,210.12Z"/><path class="cls-3" d="M97.51,92.11h0s0-.05,0-.08a19.52,19.52,0,1,0-20.39,19.5v-6.78A12.75,12.75,0,1,1,90.73,92v33.69h0v65h6.81Z"/><path class="cls-3" d="M97.51,280.19a20.92,20.92,0,0,1-5.33-.87c-.51-.15-1-.34-1.48-.53v49.59q3.36,1.85,6.81,3.55Z"/><path class="cls-4" d="M97.9,190.72h-.39v.76Z"/><path class="cls-4" d="M92.18,214.81h14.38V197.63a6.92,6.92,0,0,0-6.92-6.92H97.9l-.39.76v-.76H88.91A6.92,6.92,0,0,0,82,197.63v17.17H92.18Z"/><path class="cls-5" d="M132,185.93V164.8A50.38,50.38,0,0,0,97.9,190.72h1.75a6.92,6.92,0,0,1,6.92,6.92v17.17H77.31v44.47A20.94,20.94,0,0,0,90.7,278.8c.49.19,1,.37,1.48.53a20.92,20.92,0,0,0,5.33.87v51.75a173.71,173.71,0,0,0,44.27,14.9V210.12A34.68,34.68,0,0,1,132,185.93Z"/><path class="cls-5" d="M169.31,157.41v1.11a4.43,4.43,0,0,0,4.43,4.43H175V119.27h-5.69v38.15Z"/><path class="cls-1" d="M154,136.16a2.89,2.89,0,0,1,2.89-2.89h-6.27v1a4.74,4.74,0,0,0,4.74,4.74h1.54A2.89,2.89,0,0,1,154,136.16Z"/><path class="cls-1" d="M158.36,133.28h-1.47a2.89,2.89,0,0,1,0,5.78h1.47a2.89,2.89,0,0,0,0-5.77Z"/><path d="M158.36,138.64a3,3,0,1,0-.76.32A2.85,2.85,0,0,0,158.36,138.64Z"/><path class="cls-3" d="M169.31,119.27H175V68.91h-9.8a40,40,0,0,0-39.95,37.79H106.61v12.57h62.7Z"/><path class="cls-3" d="M164.37,178.31a4.09,4.09,0,0,0,4.09,4.09H175v-4.09Z"/><path class="cls-4" d="M175,163.69v-.74h-1.26a4.43,4.43,0,0,1-4.43-4.43V119.27H137.87v6.19h-6v13.08a8.75,8.75,0,0,0,6,8.3v1.38a22.09,22.09,0,0,0,1.26,7.33c.22.64.47,1.26.75,1.87a22.22,22.22,0,0,0,20.16,13h15v-6.7ZM158.36,139h-3a4.74,4.74,0,0,1-4.74-4.74v-1h7.74a2.89,2.89,0,0,1,0,5.77Zm-14.51-8.23h-1a4.14,4.14,0,0,1,4.09-4.09H160a4.09,4.09,0,0,1,4.09,4.09Z"/><path class="cls-2" d="M160,126.73H147a4.14,4.14,0,0,0-4.09,4.09h21.26A4.09,4.09,0,0,0,160,126.73Z"/><path class="cls-6" d="M196.63,305.72a33.45,33.45,0,0,1,11.59-35.88V210.12a34.69,34.69,0,0,1-25,10.6H175V350q4.76,0,9.47-.26a35.36,35.36,0,0,1,12.16-44Z"/><path class="cls-3" d="M218,164.8v-8.09a11.8,11.8,0,0,0,7.83-11.11V119.48c0-.07,0-.14,0-.22H212.13v6.19h6.45v13.08a8.74,8.74,0,0,1-6.45,8.43v1.25a22.09,22.09,0,0,1-1.26,7.33c-.22.64-.47,1.26-.75,1.87a22.23,22.23,0,0,1-20.16,13H175v7.92h10.63a4.09,4.09,0,0,1-4.09,4.09H175v38.32h8.22a34.69,34.69,0,0,0,25-10.6v59.72a33.31,33.31,0,0,1,20.51-7c.34,0,.67,0,1,0V238.46a27.89,27.89,0,0,1,.39-4.64h-3.4a14.18,14.18,0,0,1-14.18-14.18s0-.08,0-.13h24.63a27.93,27.93,0,0,1,20.51-9A50.33,50.33,0,0,0,218,164.8Z"/><path class="cls-5" d="M202.86,166.23a21.94,21.94,0,0,0,7.26-8.82c.28-.61.53-1.23.75-1.87a22.09,22.09,0,0,0,1.26-7.33V147a8.74,8.74,0,0,0,6.45-8.43V125.46h-6.45v-6.19H180.69v39.26a4.43,4.43,0,0,1-4.43,4.43H175v7.44h15A22,22,0,0,0,202.86,166.23ZM190,126.41H203a4.15,4.15,0,0,1,4.09,4.09H185.86A4.09,4.09,0,0,1,190,126.41Zm-1.17,9.28a2.89,2.89,0,0,1,2.84-2.89h7.74v1a4.74,4.74,0,0,1-4.74,4.74h-3A2.89,2.89,0,0,1,188.79,135.69Z"/><path class="cls-3" d="M175,157.41v5.54h1.26a4.43,4.43,0,0,0,4.43-4.43V119.27H175v38.15Z"/><path class="cls-4" d="M196,135.69a2.89,2.89,0,0,1-2.89,2.89h1.54a4.74,4.74,0,0,0,4.74-4.74v-1h-6.27A2.89,2.89,0,0,1,196,135.69Z"/><path class="cls-4" d="M191.68,138.58h1.42a2.89,2.89,0,0,1,0-5.78h-1.47a2.89,2.89,0,0,0,0,5.77Z"/><path d="M191.64,133.21a3,3,0,1,0,.76-.32A2.88,2.88,0,0,0,191.64,133.21Z"/><path d="M175,106.7v12.57h68.39V106.7H224.74A40,40,0,0,0,184.8,68.91H175V106.7Z"/><path class="cls-3" d="M207.12,130.51a4.15,4.15,0,0,0-4.09-4.09H190a4.09,4.09,0,0,0-4.09,4.09h21.26Z"/><path d="M185.63,178.31H175v4.09h6.53A4.09,4.09,0,0,0,185.63,178.31Z"/><path class="cls-5" d="M286.8,262.81c-.36,0-.72,0-1.08,0v19.57a25.7,25.7,0,0,1-25.7,25.7h-2.19v21.07a175.82,175.82,0,0,0,57.77-50A33.44,33.44,0,0,0,286.8,262.81Z"/><path class="cls-5" d="M257.76,308.12v15h0v6.08l.06,0V308.12Z"/><path class="cls-4" d="M255.44,308.12a25.7,25.7,0,0,1-25.7-25.7V262.85c-.34,0-.67,0-1,0a33.46,33.46,0,0,0-32.1,42.91,35.36,35.36,0,0,0-12.16,44,174.5,174.5,0,0,0,73.3-20.52v-6.08h0v-15Z"/><path class="cls-1" d="M257.76,210.47h-.08c0,.39.06.78.08,1.17Z"/><path class="cls-1" d="M237.18,219.51H212.54s0,.08,0,.13a14.18,14.18,0,0,0,14.18,14.18h3.4a27.89,27.89,0,0,0-.39,4.64v24.39a33.44,33.44,0,0,1,28,16.79v-68c0-.39-.05-.78-.08-1.17A27.93,27.93,0,0,0,237.18,219.51Zm2.07,33.55a2.4,2.4,0,1,1-2.4-2.4A2.4,2.4,0,0,1,239.25,253.06Z"/><path class="cls-1" d="M256.31,282.48q-.66,1.46-1.19,3-.35,1-.63,2.06a33.63,33.63,0,0,0-.1,17.15l.9-.07c.81-.06,1.63-.11,2.47-.12V279.64Q257,281,256.31,282.48Z"/><path class="cls-1" d="M255.3,304.6l-.9.07a33.91,33.91,0,0,1,.1-17.15q.28-1,.63-2.06.52-1.53,1.19-3t1.45-2.84h0a33.44,33.44,0,0,0-28-16.79v19.57a25.7,25.7,0,0,0,25.7,25.7h2.32v-3.64C256.93,304.49,256.11,304.53,255.3,304.6Zm-3.84-8.12A1.5,1.5,0,1,1,253,295,1.5,1.5,0,0,1,251.46,296.48Z"/><path class="cls-1" d="M257.76,304.48c-.83,0-1.65.05-2.47.12C256.11,304.53,256.93,304.49,257.76,304.48Z"/><path class="cls-1" d="M256.31,282.48q.66-1.46,1.45-2.84Q257,281,256.31,282.48Z"/><path class="cls-1" d="M255.12,285.46q.52-1.53,1.19-3Q255.65,283.94,255.12,285.46Z"/><path class="cls-6" d="M257.82,214v65.55a33.43,33.43,0,0,1,27.89-16.7V238.46a27.88,27.88,0,0,0-.39-4.64h3.4a14.18,14.18,0,0,0,14.18-14.18s0-.08,0-.13H278.27a27.93,27.93,0,0,0-20.51-9v1.17C257.8,212.43,257.82,213.21,257.82,214Zm20.79,36.65a2.4,2.4,0,1,1-2.4,2.4A2.4,2.4,0,0,1,278.61,250.65Z"/><path class="cls-6" d="M257.82,214c0-.79,0-1.58-.06-2.36v68l.06-.09Z"/><path class="cls-6" d="M258,304.48c1.07,0,2.12.06,3.16.15a33.51,33.51,0,0,0-3.32-24.88v24.73Z"/><path class="cls-6" d="M257.76,304.48h.06V279.75l-.06-.11Z"/><path class="cls-6" d="M257.82,279.55v.2a33.51,33.51,0,0,1,3.32,24.88c-1-.1-2.09-.15-3.16-.15h-.17v3.64H260a25.7,25.7,0,0,0,25.7-25.7V262.85A33.43,33.43,0,0,0,257.82,279.55ZM264,293.48a1.5,1.5,0,1,1-1.5,1.5A1.5,1.5,0,0,1,264,293.48Z"/><path class="cls-6" d="M257.76,304.48v3.64h.06v-3.64Z"/><path class="cls-6" d="M257.82,279.75v-.2l-.06.09h0Z"/><circle class="cls-7" cx="236.84" cy="253.06" r="2.4"/><circle class="cls-7" cx="278.61" cy="253.06" r="2.4"/><circle class="cls-7" cx="251.46" cy="294.98" r="1.5"/><circle class="cls-7" cx="263.99" cy="294.98" r="1.5"/></g></g></svg>