<svg xmlns="http://www.w3.org/2000/svg" viewBox="0 0 350 350"><defs><style>.cls-1{fill:#fdb98d;}.cls-2{fill:#fffac2;}.cls-3{fill:#016099;}.cls-4{fill:#00bcb4;}.cls-5{fill:#3d113c;}.cls-6{fill:#fff;}.cls-7{fill:#b3b3b3;}</style></defs><title>Element 7Illustrations</title><g id="Ebene_2" data-name="Ebene 2"><g id="Ebene_1-2" data-name="Ebene 1"><path class="cls-1" d="M136.46,295.67a10,10,0,0,1-10-10V113.55l42.71-42.71V49.24A5.81,5.81,0,0,1,175,43.42h.13V0H175a175,175,0,0,0,0,350h.13V295.67Z"/><path class="cls-2" d="M169.19,49.24V70.84l-42.71,42.71H138l37-37,.13.13V43.43H175A5.81,5.81,0,0,0,169.19,49.24Z"/><path class="cls-3" d="M175,76.59l-37,37H126.48V285.7a10,10,0,0,0,10,10h38.67v-219Z"/><path class="cls-1" d="M350,175A175,175,0,0,0,175.13,0V43.43a5.81,5.81,0,0,1,5.69,5.81V70.84l42.71,42.71V285.7a10,10,0,0,1-10,10H175.13V350A175,175,0,0,0,350,175Z"/><path class="cls-4" d="M212,113.55h11.56L180.81,70.84V49.24a5.81,5.81,0,0,0-5.69-5.81V76.72Z"/><path class="cls-5" d="M212,113.55,175.13,76.72v219h38.41a10,10,0,0,0,10-10V113.55Z"/><path class="cls-4" d="M132.54,78.75h27.67a0,0,0,0,1,0,0v8.46a3.89,3.89,0,0,1-3.89,3.89h-19.9a3.89,3.89,0,0,1-3.89-3.89V78.75A0,0,0,0,1,132.54,78.75Z" transform="translate(309.94 41.47) rotate(135)"/><path class="cls-3" d="M201.88,177.2q-.08-.94-.23-1.86a27.1,27.1,0,0,0-12.44-18.69,5.72,5.72,0,0,1-1.11.11h-2.24v20.78a5.91,5.91,0,0,1-5.91,5.91h-5V194.2H175A32.69,32.69,0,0,0,202,180v-.41C202,178.79,201.94,178,201.88,177.2Z"/><path class="cls-2" d="M175,128.72A32.72,32.72,0,0,0,148,180v-.41a27,27,0,0,1,1-7.41c.07-.26.15-.52.23-.77a27.07,27.07,0,0,1,11.5-14.75,5.72,5.72,0,0,0,1.11.11h2.24v20.78a5.91,5.91,0,0,0,5.91,5.91H180a5.91,5.91,0,0,0,5.91-5.91V156.76h2.24a5.72,5.72,0,0,0,1.11-.11,27,27,0,0,1,12.44,18.69q.15.92.23,1.86c.07.79.11,1.58.11,2.39V180a32.57,32.57,0,0,0,5.72-16.92q0-.81,0-1.63A32.74,32.74,0,0,0,175,128.72Z"/><path class="cls-4" d="M170,183.46a5.91,5.91,0,0,1-5.91-5.91V156.76H161.9a5.72,5.72,0,0,1-1.11-.11,27.07,27.07,0,0,0-11.5,14.75c-.08.26-.16.51-.23.77a27,27,0,0,0-1,7.41V180a32.92,32.92,0,0,0,8.48,8.47A32.55,32.55,0,0,0,171.77,194q1.56.15,3.17.16V183.46Z"/><path class="cls-6" d="M170.34,159.38h0Z"/><path class="cls-6" d="M170.34,157.56h0Z"/><rect class="cls-7" x="185.85" y="151.06" width="0.02" height="0.09"/><path class="cls-5" d="M189.07,151.06V140.32a3.22,3.22,0,0,0-3.22-3.22v9.77h-10.9v36.59h5a5.91,5.91,0,0,0,5.91-5.91V156.76h2.24a5.7,5.7,0,0,0,5.7-5.7Z"/><path class="cls-3" d="M170.55,146.87h-6.4v-9.81a3.22,3.22,0,0,0-3.22,3.22v10.78H156.2a5.7,5.7,0,0,0,5.7,5.7h2.24v20.78a5.91,5.91,0,0,0,5.91,5.91h4.89V146.87Z"/></g></g></svg>