<svg xmlns="http://www.w3.org/2000/svg" viewBox="0 0 350 350"><defs><style>.cls-1{fill:#fdb98d;}.cls-2{fill:#016099;}.cls-3{fill:#fffac2;}.cls-4{fill:#3d113c;}.cls-5{fill:#00bcb4;}.cls-6{fill:#fc6719;}</style></defs><title>Element 8Illustrations</title><g id="Ebene_2" data-name="Ebene 2"><g id="Ebene_1-2" data-name="Ebene 1"><path class="cls-1" d="M89.93,249.76h0a67,67,0,0,1,0-94.74l57.46-57.46V77.1h5.24L142.11,66.58,156.59,52.1l8.18,8.18v0L175,50V0a175,175,0,1,0,0,350V285A119.92,119.92,0,0,1,89.93,249.76Z"/><path class="cls-2" d="M156.69,186.66H175V172.22A27.24,27.24,0,0,0,156.69,186.66Z"/><path class="cls-2" d="M146.69,210.79h-5.57V201h3.59c0-.75-.08-1.5-.08-2.26s0-1.51.08-2.26h-3.59v-9.81h5.57A36.46,36.46,0,0,1,175,162.81V97.56H147.39L89.93,155a67,67,0,0,0,0,94.74h0A119.92,119.92,0,0,0,175,285V234.64A36.46,36.46,0,0,1,146.69,210.79Z"/><path class="cls-2" d="M175,225.23V210.79H156.69A27.24,27.24,0,0,0,175,225.23Z"/><polygon class="cls-2" points="164.77 60.28 156.59 52.1 142.12 66.58 152.64 77.1 175 77.1 175 50.01 164.77 60.24 164.77 60.28"/><path class="cls-2" d="M153.86,198.73c0,.76,0,1.51.1,2.26h21v-4.52H154C153.9,197.21,153.86,198,153.86,198.73Z"/><path class="cls-1" d="M146.69,186.66h-5.57v9.81h3.59c0,.75-.08,1.5-.08,2.26s0,1.51.08,2.26h-3.59v9.81h5.57A36.46,36.46,0,0,0,175,234.64v-9.41a27.24,27.24,0,0,1-18.31-14.44H175V201H154c-.06-.75-.1-1.5-.1-2.26s0-1.51.1-2.26h21v-9.81H156.69A27.24,27.24,0,0,1,175,172.22v-9.41A36.46,36.46,0,0,0,146.69,186.66Z"/><polygon class="cls-3" points="152.64 77.1 147.39 77.1 147.39 97.56 147.39 97.56 175 97.56 175 77.1 152.64 77.1"/><path class="cls-1" d="M350,175A175,175,0,0,0,175,0V50l10.23,10.23v0l8.18-8.18,14.47,14.47L197.36,77.1h5.24V97.56L260.07,155a67,67,0,0,1,0,94.74h0A119.92,119.92,0,0,1,175,285v65A175,175,0,0,0,350,175Z"/><polygon class="cls-4" points="197.36 77.1 207.88 66.58 193.41 52.1 185.23 60.28 185.23 60.24 175 50.01 175 77.1 197.36 77.1"/><path class="cls-4" d="M175,97.56v65.25a36.43,36.43,0,0,1,30.65,9.06l-6.54,6.54A27.16,27.16,0,0,0,175,172.22v14.44h.24v9.81H175V201h.24v9.81H175v14.44A27.16,27.16,0,0,0,199.11,219l6.54,6.54A36.43,36.43,0,0,1,175,234.64V285a119.92,119.92,0,0,0,85.07-35.24h0a67,67,0,0,0,0-94.74L202.61,97.56H175Z"/><rect class="cls-5" x="175" y="186.66" width="0.24" height="9.81"/><path class="cls-6" d="M181.05,171.54a27.08,27.08,0,0,1,18.06,6.87l6.54-6.54A36.43,36.43,0,0,0,175,162.81v9.41A27.23,27.23,0,0,1,181.05,171.54Z"/><rect class="cls-5" x="175" y="200.99" width="0.24" height="9.81"/><path class="cls-6" d="M181.05,235.14a36.28,36.28,0,0,0,24.6-9.57L199.11,219A27.16,27.16,0,0,1,175,225.23v9.41A36.62,36.62,0,0,0,181.05,235.14Z"/><polygon class="cls-5" points="197.36 77.1 175 77.1 175 97.56 202.61 97.56 202.61 97.56 202.61 77.1 197.36 77.1"/></g></g></svg>