<svg xmlns="http://www.w3.org/2000/svg" viewBox="0 0 350 350"><defs><style>.cls-1{fill:#00bcb4;}.cls-2{fill:#fc6719;}.cls-3{fill:#fdb98d;}.cls-4{fill:#fffac2;}.cls-5{fill:#3d113c;}.cls-6{fill:#009688;}.cls-7{fill:#fff;}</style></defs><title>Element 5Illustrations</title><g id="Ebene_2" data-name="Ebene 2"><g id="Ebene_1-2" data-name="Ebene 1"><path class="cls-1" d="M80,141.9a95.29,95.29,0,0,1,11-31.58H82.06a40.53,40.53,0,0,1,40.53-40.53h12.35a95.59,95.59,0,0,1,39.8-8.62l1.54,0V0L175,0A175.11,175.11,0,0,0,6.34,221.82,189.86,189.86,0,0,1,80,141.9Z"/><path class="cls-2" d="M174.74,253.06A96,96,0,0,1,80,141.9,189.86,189.86,0,0,0,6.34,221.82,175.07,175.07,0,0,0,175,350h1.28V253Z"/><path class="cls-2" d="M134.94,69.79H122.59a40.53,40.53,0,0,0-40.53,40.53H91A96.34,96.34,0,0,1,134.94,69.79Z"/><path class="cls-3" d="M100.64,110.32a87.59,87.59,0,0,1,66.81-40.53c2.41-.2,4.84-.3,7.29-.3l1.54,0V61.18l-1.54,0A95.93,95.93,0,0,0,80,141.9a96,96,0,0,0,94.74,111.16l1.54,0v-8.32l-1.54,0a87.62,87.62,0,0,1-74.1-134.42Z"/><path class="cls-3" d="M174.74,69.48c-2.46,0-4.89.11-7.29.3a87.63,87.63,0,0,0,7.29,175l1.54,0V209.47H160.67a17.26,17.26,0,1,1,0-34.53h15.62V69.5Zm-26.12,72.95H129.83a7.65,7.65,0,0,1-7.65-7.65v-1.18h12.88a2.58,2.58,0,0,1,1,0H141a7.65,7.65,0,0,1,7.65,7.65Z"/><path class="cls-4" d="M143.4,192.2a17.26,17.26,0,0,0,17.26,17.26h15.62V174.94H160.67A17.26,17.26,0,0,0,143.4,192.2Zm21.2-2.63a3.75,3.75,0,1,1-3.75,3.75A3.75,3.75,0,0,1,164.61,189.58Z"/><circle class="cls-3" cx="164.61" cy="193.33" r="3.75"/><path d="M136.09,133.61a2.58,2.58,0,0,0-1,0h1Z"/><path class="cls-1" d="M214.54,69.79h12a40.53,40.53,0,0,1,40.53,40.53h-8.56a95.28,95.28,0,0,1,10.62,29.54,189.87,189.87,0,0,1,75.45,78.49A175.13,175.13,0,0,0,176.28,0V61.18A95.54,95.54,0,0,1,214.54,69.79Z"/><path class="cls-5" d="M344.58,218.35a189.87,189.87,0,0,0-75.45-78.49A96,96,0,0,1,176.28,253V350A175.07,175.07,0,0,0,344.58,218.35Z"/><path class="cls-5" d="M258.51,110.32h8.56a40.53,40.53,0,0,0-40.53-40.53h-12A96.34,96.34,0,0,1,258.51,110.32Z"/><path class="cls-2" d="M269.14,139.86a95.28,95.28,0,0,0-10.62-29.54,95.81,95.81,0,0,0-82.23-49.13V69.5q2.9.05,5.75.28a87.63,87.63,0,0,1-5.75,174.93V253a96,96,0,0,0,92.85-113.18Z"/><path class="cls-2" d="M259.49,134.77a87.67,87.67,0,0,0-77.46-65q-2.85-.23-5.75-.28V174.94h12.53a17.26,17.26,0,1,1,0,34.53H176.28v35.26a87.68,87.68,0,0,0,83.2-110Zm-32.2,0a7.65,7.65,0,0,1-7.65,7.65H200.86v-1.18a7.65,7.65,0,0,1,7.65-7.65h4.88a2.58,2.58,0,0,1,1,0h12.88Z"/><path class="cls-4" d="M188.81,209.47a17.26,17.26,0,1,0,0-34.53H176.28v34.53Zm-3.94-19.89a3.75,3.75,0,1,1-3.75,3.75A3.75,3.75,0,0,1,184.87,189.58Z"/><circle class="cls-2" cx="184.87" cy="193.33" r="3.75"/><path class="cls-6" d="M214.42,133.61a2.58,2.58,0,0,0-1,0h1Z"/><path class="cls-5" d="M136.09,133.61h-1a4.38,4.38,0,0,0,.34,8.74l.17,0a4.39,4.39,0,0,0,.52-8.75Z"/><path class="cls-7" d="M141,133.61h-4.88a4.39,4.39,0,0,1-.52,8.75l-.17,0a4.38,4.38,0,0,1-.34-8.74H122.19v1.18a7.65,7.65,0,0,0,7.65,7.65h18.79v-1.18A7.65,7.65,0,0,0,141,133.61Z"/><path class="cls-7" d="M214.42,133.61a4.38,4.38,0,0,1-.34,8.74l-.17,0a4.39,4.39,0,0,1-.52-8.75H208.5a7.65,7.65,0,0,0-7.65,7.65v1.18h18.79a7.65,7.65,0,0,0,7.65-7.65v-1.18Z"/><path class="cls-5" d="M214.42,133.61h-1a4.39,4.39,0,0,0,.52,8.75l.17,0a4.38,4.38,0,0,0,.34-8.74Z"/></g></g></svg>