<svg xmlns="http://www.w3.org/2000/svg" viewBox="0 0 350 350"><defs><style>.cls-1{fill:#fbae17;}.cls-2{fill:#fdb98d;}.cls-3{fill:#3d113c;}.cls-4{fill:#fc6719;}.cls-5{fill:#fffac2;}.cls-6{fill:#00bcb4;}.cls-7{fill:#273329;}</style></defs><title>Element 1Illustrations</title><g id="Ebene_2" data-name="Ebene 2"><g id="Ebene_1-2" data-name="Ebene 1"><path class="cls-1" d="M168.33,248.13q3.52-.38,7.13-.4V195.14a71,71,0,0,0-7.13,53Z"/><path class="cls-2" d="M166.09,230.36a70.49,70.49,0,0,1,9.38-35.22A70.84,70.84,0,0,0,46.1,250.54a71.22,71.22,0,0,0-18.66,18.57,175.65,175.65,0,0,0,79.94,67.34,173.72,173.72,0,0,0,38.06,11.05A176.12,176.12,0,0,0,175,350h.47V247.73q-3.61,0-7.13.4A71,71,0,0,1,166.09,230.36Z"/><path class="cls-3" d="M320,76.94A175,175,0,0,0,27.44,269.11,71.22,71.22,0,0,1,46.1,250.54a70.84,70.84,0,0,1,129.37-55.4,70.84,70.84,0,0,1,129.37,55.4A71.23,71.23,0,0,1,323,268.41a175.09,175.09,0,0,0-3-191.47Z"/><path class="cls-1" d="M175.94,247.72c2.26,0,4.49.12,6.69.32a71,71,0,0,0-7.16-52.9v52.59Z"/><path class="cls-4" d="M304.84,250.54a70.84,70.84,0,0,0-129.37-55.4,71,71,0,0,1,7.16,52.9c-2.2-.21-4.43-.32-6.69-.32h-.47V350a176,176,0,0,0,29.95-2.63,173.69,173.69,0,0,0,39.3-11.81A175.67,175.67,0,0,0,323,268.41,71.23,71.23,0,0,0,304.84,250.54Z"/><path class="cls-5" d="M175.39,48.71h0a59.12,59.12,0,0,0-43.5,19.13H79.74c0,.09,0,.18,0,.27h0a30,30,0,0,0,30,30H117a59,59,0,0,0-.83,9.83V201a54.41,54.41,0,0,0,54.41,54.41h4.92V48.71Z"/><path class="cls-6" d="M271,67.84H218.89a59.13,59.13,0,0,0-43.42-19.13V255.43h4.76A54.41,54.41,0,0,0,234.64,201V108a59,59,0,0,0-.83-9.83H241a30,30,0,0,0,30-30h0C271,68,271,67.93,271,67.84Z"/><circle class="cls-7" cx="131.18" cy="138.86" r="5.09"/><circle class="cls-7" cx="219.6" cy="138.86" r="5.09"/><circle class="cls-7" cx="162.12" cy="227.61" r="3.18"/><circle class="cls-7" cx="188.66" cy="227.61" r="3.18"/></g></g></svg>