<svg xmlns="http://www.w3.org/2000/svg" viewBox="0 0 350 350"><defs><style>.cls-1{fill:#3d113c;}.cls-2{fill:#fffac2;}.cls-3{fill:#00bcb4;}</style></defs><title>Element 9Illustrations</title><g id="Ebene_2" data-name="Ebene 2"><g id="Ebene_1-2" data-name="Ebene 1"><path class="cls-1" d="M156.38,260.83a42.93,42.93,0,0,1-41.07-55.36A42.91,42.91,0,1,1,109.6,120c.4,0,.79,0,1.18,0A42.93,42.93,0,0,1,175,92.38V0a175,175,0,1,0,0,350V256.59A42.74,42.74,0,0,1,156.38,260.83Z"/><path class="cls-2" d="M110.78,120.06c-.39,0-.79,0-1.18,0a42.91,42.91,0,1,0,5.71,85.44A42.93,42.93,0,0,0,175,256.59V92.38a42.93,42.93,0,0,0-64.22,27.68Z"/><path class="cls-1" d="M350,175A175,175,0,0,0,175,0V92.38a42.92,42.92,0,0,1,61.91,53.12c1.15-.09,2.31-.15,3.49-.15a42.91,42.91,0,1,1-5.83,85.42A42.95,42.95,0,0,1,175,256.59V350A175,175,0,0,0,350,175Z"/><path class="cls-3" d="M193.62,260.83a42.93,42.93,0,0,0,41-30.06,42.91,42.91,0,1,0,5.83-85.42c-1.17,0-2.34.06-3.49.15A42.92,42.92,0,0,0,175,92.38V256.59A42.74,42.74,0,0,0,193.62,260.83Z"/></g></g></svg>